<svg width="78" height="65" viewBox="0 0 78 65" fill="none" xmlns="http://www.w3.org/2000/svg">
<path d="M43.6979 38.755L43.3345 38.3735L43.6979 38.755ZM26.9255 42.0241L26.4009 42.0737L26.9255 42.0241ZM67.0201 56.9734C67.1254 56.7021 66.991 56.3968 66.7198 56.2914L62.2997 54.574C62.0285 54.4686 61.7232 54.6031 61.6178 54.8743C61.5124 55.1456 61.6468 55.4509 61.9181 55.5563L65.847 57.0828L64.3204 61.0117C64.215 61.283 64.3495 61.5883 64.6207 61.6937C64.892 61.7991 65.1973 61.6646 65.3027 61.3934L67.0201 56.9734ZM8.55827 0.674593C11.6373 9.0651 17.1491 21.6976 23.4969 30.7334C26.6642 35.242 30.0835 38.9198 33.5635 40.6929C35.3135 41.5845 37.1012 42.0058 38.8873 41.786C40.6767 41.5657 42.4109 40.7083 44.0612 39.1366L43.3345 38.3735C41.8168 39.819 40.2842 40.5523 38.7586 40.7401C37.2296 40.9283 35.6537 40.5752 34.0419 39.754C30.7983 38.1013 27.5007 34.5996 24.3591 30.1277C18.089 21.2023 12.6145 8.66931 9.54753 0.311567L8.55827 0.674593ZM44.0612 39.1366C45.7658 37.5131 46.7547 35.8195 47.1496 34.1492C47.5451 32.4767 47.3364 30.8623 46.7022 29.4179C45.441 26.5454 42.5078 24.3551 39.274 23.584C36.0231 22.8089 32.3898 23.4516 29.7723 26.3572C27.169 29.2469 25.663 34.2736 26.4009 42.0737L27.45 41.9744C26.7258 34.3194 28.2309 29.6426 30.5552 27.0625C32.8653 24.4983 36.0762 23.9048 39.0296 24.609C42 25.3173 44.631 27.3218 45.7373 29.8415C46.2869 31.0932 46.4628 32.4743 46.1241 33.9068C45.7849 35.3415 44.921 36.8625 43.3345 38.3735L44.0612 39.1366ZM26.4009 42.0737C26.9944 48.347 29.0344 52.8183 32.0024 55.8858C34.9685 58.9513 38.8153 60.5671 42.9377 61.2159C51.1584 62.5096 60.5827 59.9767 66.7413 57.2647L66.3166 56.3003C60.2488 58.9723 51.041 61.4244 43.1015 60.1749C39.1437 59.5521 35.5283 58.0143 32.7597 55.153C29.9932 52.2938 28.0262 48.0652 27.45 41.9744L26.4009 42.0737Z" fill="#FFF8F8"/>
<circle cx="55.2158" cy="33.5885" r="1.5" transform="rotate(99.5271 55.2158 33.5885)" fill="#D9D9D9"/>
<circle cx="69.5881" cy="54.6026" r="0.689532" transform="rotate(-5.47292 69.5881 54.6026)" fill="#D9D9D9"/>
<circle cx="9.95092" cy="29.3757" r="4.2317" transform="rotate(90.6249 9.95092 29.3757)" fill="#D9D9D9"/>
</svg>
