<svg width="797" height="186" viewBox="0 0 797 186" fill="none" xmlns="http://www.w3.org/2000/svg">
<path d="M0.531874 162.98V9.20792C0.531874 6.59901 2.18934 5.29455 5.50428 5.29455C5.86553 5.29455 6.37552 5.33292 7.03426 5.40965C7.71424 5.48639 8.18174 5.52475 8.43673 5.52475C10.1155 5.52475 12.6123 5.40965 15.9272 5.17946C19.2634 4.94926 21.7815 4.83416 23.4815 4.83416C24.6502 4.83416 26.382 4.91089 28.677 5.06436C30.9932 5.21782 32.7888 5.29455 34.0638 5.29455C34.2338 5.29455 34.4888 5.25619 34.8288 5.17946C35.1687 5.10272 35.4237 5.06436 35.5937 5.06436C36.3587 5.06436 36.89 5.60148 37.1875 6.67574C37.485 7.67327 37.6337 9.66832 37.6337 12.6609V52.9455C36.4012 53.3292 35.1156 53.5978 33.7769 53.7512C32.4382 53.828 30.7382 53.9047 28.677 53.9814C26.6158 54.0582 25.3302 54.0965 24.8202 54.0965H20.4215C20.4215 55.5545 20.4109 57.6646 20.3896 60.427C20.3684 63.1894 20.3578 65.2995 20.3578 66.7574V68.3688C20.4003 68.6757 20.4215 69.2129 20.4215 69.9802C25.2452 68.7525 29.3251 68.1386 32.6613 68.1386C33.66 68.1386 34.5419 68.4072 35.3069 68.9443C36.0931 69.4814 36.4862 70.2871 36.4862 71.3614V109.804C36.4862 113.181 36.3056 115.444 35.9444 116.595C35.5831 117.746 35.02 118.322 34.255 118.322C34.085 118.322 33.7769 118.245 33.3307 118.092C32.8844 117.938 32.5338 117.861 32.2788 117.861C27.9651 118.859 24.034 119.473 20.4853 119.703C20.4853 124.384 20.5171 131.443 20.5809 140.881C20.6446 150.319 20.6765 157.379 20.6765 162.059V176.332C20.6765 178.557 20.6128 180.015 20.4853 180.705C20.3578 181.473 20.039 182.01 19.529 182.317C17.4891 182.317 14.4716 182.394 10.4767 182.547C6.48177 182.7 3.46432 182.777 1.42436 182.777C1.25436 181.856 1.10561 180.859 0.978116 179.785C0.871868 178.71 0.78687 177.751 0.723121 176.907C0.659372 176.063 0.606248 174.912 0.563749 173.454C0.542499 171.92 0.52125 170.845 0.5 170.231C0.5 169.541 0.5 168.275 0.5 166.433C0.52125 164.592 0.531874 163.441 0.531874 162.98Z" fill="white"/>
<path d="M40.3112 47.651C40.2262 46.1163 40.1837 41.7426 40.1837 34.5297C40.1837 26.2426 40.3962 21.3317 40.8211 19.797H58.1608V116.48C58.1608 126.455 58.9683 131.443 60.5833 131.443C61.2633 131.443 61.8264 130.369 62.2726 128.22C62.7189 125.995 62.942 123.386 62.942 120.394V103.359C63.0695 69.75 63.1332 52.7921 63.1332 52.4851C63.1332 39.1337 63.0907 29.4653 63.0057 23.4802C63.0057 21.3317 63.3032 19.797 63.8982 18.8762H81.6204V36.8317C81.3442 65.9134 81.1742 84.6361 81.1104 93V100.136C81.1104 101.057 81.0998 102.285 81.0785 103.819C81.0573 105.354 81.0467 106.428 81.0467 107.042C81.0467 109.651 81.0679 111.493 81.1104 112.567V121.545C81.1104 132.21 80.8129 139.884 80.2179 144.564V145.025C79.5379 150.78 78.5605 155.767 77.2855 159.988C76.0105 164.131 74.5549 167.392 72.9187 169.771C71.2825 172.073 69.6038 173.761 67.8825 174.835C66.1613 175.833 64.3445 176.332 62.432 176.332C61.837 176.332 61.3908 176.101 61.0933 175.641H60.3283C60.3283 176.408 60.0095 176.792 59.3721 176.792V177.022C58.9046 177.099 57.5446 176.715 55.2921 175.871H53.8259C52.4872 175.334 51.191 174.26 49.9372 172.649C48.7048 171.037 47.5042 168.774 46.3354 165.858C45.1667 162.865 44.1361 159.335 43.2436 155.269C42.3724 151.202 41.6605 146.252 41.108 140.421C40.5555 134.589 40.2474 128.22 40.1837 121.314C40.2049 117.324 40.2049 111.799 40.1837 104.74C40.1837 97.6807 40.1943 91.2735 40.2155 85.5186C40.2368 79.6869 40.2899 74.047 40.3749 68.599V65.3762C40.3749 64.9926 40.3855 64.3787 40.4068 63.5347C40.428 62.6906 40.4387 62.0767 40.4387 61.6931C40.4387 60.5421 40.4174 58.8156 40.3749 56.5136C40.3324 54.2116 40.3112 52.4851 40.3112 51.3342V47.4208V47.651Z" fill="white"/>
<path d="M87.2303 174.49C87.1666 174.183 87.0603 173.838 86.9116 173.454C86.7841 173.071 86.6353 172.342 86.4653 171.267V121.545C86.4653 115.022 86.5397 105.009 86.6884 91.5037C86.8372 77.9988 86.9116 67.755 86.9116 60.7723C86.9116 59.2376 86.8691 55.9765 86.7841 50.9889C86.6991 46.0012 86.6566 42.0495 86.6566 39.1337C86.6566 28.3144 87.0178 21.7153 87.7403 19.3366C92.1602 19.6436 95.4539 19.797 97.6214 19.797H100.681C101.404 19.797 101.956 19.8738 102.339 20.0272C102.381 19.8738 102.488 19.797 102.658 19.797C102.7 19.797 102.881 19.8738 103.199 20.0272C103.539 20.1807 103.805 20.2574 103.996 20.2574C104.527 20.4876 104.974 22.099 105.335 25.0916V26.703C105.335 27.547 105.324 28.7748 105.303 30.3861C105.282 31.9975 105.271 33.2252 105.271 34.0693V39.1337C105.25 39.5173 105.112 40.2079 104.857 41.2054C104.623 42.1262 104.506 42.8936 104.506 43.5074V127.53H118.021C118.361 127.53 118.616 127.568 118.786 127.645C118.956 127.722 119.126 128.067 119.296 128.681C119.466 129.295 119.551 130.215 119.551 131.443V169.886C119.381 172.955 118.361 174.49 116.491 174.49H87.2303Z" fill="white"/>
<path d="M123.121 174.49C123.057 174.183 122.951 173.838 122.802 173.454C122.675 173.071 122.526 172.342 122.356 171.267V121.545C122.356 115.022 122.43 105.009 122.579 91.5037C122.728 77.9988 122.802 67.755 122.802 60.7723C122.802 59.2376 122.76 55.9765 122.675 50.9889C122.59 46.0012 122.547 42.0495 122.547 39.1337C122.547 28.3144 122.908 21.7153 123.631 19.3366C128.051 19.6436 131.345 19.797 133.512 19.797H136.572C137.294 19.797 137.847 19.8738 138.229 20.0272C138.272 19.8738 138.378 19.797 138.548 19.797C138.591 19.797 138.771 19.8738 139.09 20.0272C139.43 20.1807 139.696 20.2574 139.887 20.2574C140.418 20.4876 140.864 22.099 141.226 25.0916V26.703C141.226 27.547 141.215 28.7748 141.194 30.3861C141.172 31.9975 141.162 33.2252 141.162 34.0693V39.1337C141.141 39.5173 141.002 40.2079 140.747 41.2054C140.514 42.1262 140.397 42.8936 140.397 43.5074V127.53H153.912C154.252 127.53 154.507 127.568 154.677 127.645C154.847 127.722 155.017 128.067 155.187 128.681C155.357 129.295 155.442 130.215 155.442 131.443V169.886C155.272 172.955 154.252 174.49 152.382 174.49H123.121Z" fill="white"/>
<path d="M198.472 186C195.965 185.616 193.712 184.811 191.715 183.583C189.717 182.432 187.783 180.552 185.914 177.943C184.065 175.257 182.503 171.92 181.228 167.929C179.974 163.863 178.922 158.683 178.072 152.391C177.244 146.099 176.734 138.809 176.542 130.522C176.542 129.064 176.755 128.22 177.18 127.99C177.307 128.144 177.52 128.22 177.817 128.22C179.581 128.22 182.259 128.067 185.85 127.76C189.441 127.453 192.118 127.299 193.882 127.299C194.328 127.299 194.679 127.837 194.934 128.911C195.189 129.908 195.391 131.174 195.54 132.709C195.71 134.167 195.901 135.663 196.113 137.198C196.347 138.656 196.73 139.922 197.261 140.996C197.813 141.994 198.515 142.493 199.365 142.493C200.406 142.493 201.32 141.457 202.106 139.385C202.913 137.236 203.317 134.359 203.317 130.752C203.317 128.374 202.977 126.187 202.297 124.192C201.617 122.197 200.714 120.585 199.588 119.358C198.483 118.053 197.42 116.979 196.4 116.135C195.401 115.214 194.371 114.447 193.308 113.833C192.246 113.142 191.63 112.72 191.46 112.567C186.296 107.502 182.577 101.21 180.304 93.6906C178.051 86.1708 176.925 75.8886 176.925 62.8441C176.925 53.6361 177.392 45.3874 178.327 38.0978C179.262 30.7314 180.484 24.7463 181.993 20.1423C183.502 15.4616 185.287 11.5866 187.348 8.51733C189.409 5.37129 191.492 3.18441 193.595 1.95668C195.699 0.652228 197.877 0 200.13 0C206.101 0 210.861 3.9901 214.409 11.9703C215.705 16.651 216.651 20.2191 217.246 22.6745C217.862 25.0532 218.447 27.854 218.999 31.0767C219.573 34.2995 219.966 37.4839 220.179 40.6299C220.412 43.6993 220.572 47.4975 220.657 52.0247L219.509 56.1683C215.153 56.7822 210.266 57.0891 204.847 57.0891C204.167 57.0891 203.614 56.8205 203.189 56.2834C202.786 55.7463 202.509 55.0557 202.361 54.2116C202.233 53.3676 202.095 52.4851 201.946 51.5644C201.819 50.6436 201.691 49.7611 201.564 48.9171C201.458 48.073 201.213 47.3824 200.831 46.8453C200.47 46.3082 199.981 46.0396 199.365 46.0396C199.195 46.0396 198.918 46.1547 198.536 46.3849C198.175 46.6151 197.739 46.9988 197.229 47.5359C196.74 47.9963 196.315 48.7636 195.954 49.8379C195.593 50.8354 195.412 52.0247 195.412 53.4059C195.412 55.0941 195.646 56.6287 196.113 58.0099C196.602 59.3911 197.112 60.3886 197.643 61.0025C198.175 61.6163 198.833 62.3069 199.62 63.0743C200.406 63.7649 200.895 64.2252 201.086 64.4554C205.718 68.6757 208.481 71.2847 209.373 72.2822C214.027 77.5767 217.32 84.521 219.254 93.1151C221.039 101.095 221.932 111.109 221.932 123.156C221.932 130.446 221.666 137.083 221.135 143.068C220.625 149.053 219.945 154.118 219.095 158.261C218.245 162.405 217.182 166.088 215.907 169.311C214.632 172.533 213.336 175.104 212.019 177.022C210.722 178.941 209.246 180.552 207.588 181.856C205.931 183.161 204.401 184.082 202.998 184.619C201.617 185.233 200.108 185.693 198.472 186Z" fill="white"/>
<path d="M222.187 62.6139V21.1782H259.288C259.628 21.4084 259.841 21.9072 259.926 22.6745C260.011 23.3651 260.053 24.401 260.053 25.7822V62.6139C260.011 64.4554 259.713 65.3762 259.161 65.3762H250.109V171.267C250.109 171.344 250.098 171.536 250.077 171.843C250.055 172.15 250.045 172.342 250.045 172.418C250.045 172.495 250.034 172.649 250.013 172.879C249.992 173.109 249.97 173.262 249.949 173.339C249.928 173.416 249.907 173.569 249.885 173.799C249.864 173.953 249.832 174.068 249.79 174.145C249.769 174.145 249.726 174.222 249.662 174.375C249.62 174.452 249.567 174.528 249.503 174.605C249.46 174.682 249.397 174.759 249.312 174.835C249.248 174.835 249.174 174.874 249.089 174.95H247.049C244.329 174.95 242.969 174.644 242.969 174.03C242.799 174.03 242.544 174.068 242.204 174.145C241.864 174.222 241.609 174.26 241.439 174.26H238.889C238.4 174.26 237.699 174.298 236.785 174.375C235.893 174.452 235.191 174.49 234.681 174.49H232.896L231.621 171.267V146.406C231.643 141.955 231.728 132.441 231.876 117.861C232.046 103.282 232.131 91.7723 232.131 83.3317V80.3391C232.131 79.7252 232.142 78.7661 232.163 77.4616C232.185 76.1572 232.195 75.198 232.195 74.5842C232.195 73.8936 232.185 72.5124 232.163 70.4406C232.142 68.2921 232.131 66.9109 232.131 66.297H224.163C223.695 66.297 223.249 66.0285 222.824 65.4913C222.399 64.8775 222.187 63.9183 222.187 62.6139Z" fill="white"/>
<path d="M277.393 150.549C277.244 152.314 277.096 154.655 276.947 157.571C276.819 160.41 276.692 162.673 276.564 164.361C276.458 165.973 276.267 167.699 275.991 169.541C275.714 171.306 275.289 172.61 274.716 173.454C274.163 174.298 273.441 174.72 272.548 174.72H258.778V170.807C259.905 158.606 261.541 139.884 263.687 114.639C265.855 89.3936 267.533 70.2871 268.723 57.3193V57.5495C269.446 50.1064 270.508 38.4431 271.911 22.5594C271.932 22.4059 271.964 22.2141 272.006 21.9839C272.198 20.8329 272.378 19.9505 272.548 19.3366L289.76 19.797C292.693 19.797 294.308 20.7178 294.605 22.5594V25.552C294.648 26.2426 294.882 28.0074 295.307 30.8465C297.368 53.6361 298.876 70.2104 299.833 80.5693V81.9505C299.918 84.1757 300.109 86.7079 300.406 89.547C300.704 92.3861 301.055 95.4554 301.458 98.7549C301.883 101.978 302.181 104.51 302.351 106.351L303.626 122.926C304.37 131.827 305.464 143.72 306.909 158.606V158.376V160.678C306.973 161.752 307.132 163.21 307.387 165.052C307.642 166.894 307.801 168.198 307.865 168.965C307.865 171.114 307.738 172.495 307.483 173.109C307.249 173.723 306.781 174.03 306.08 174.03H291.29C290.929 173.876 290.695 173.761 290.589 173.684C290.483 173.608 290.313 173.454 290.079 173.224C289.867 172.994 289.707 172.687 289.601 172.303C289.516 171.92 289.463 171.421 289.442 170.807L288.23 153.312C288.145 151.854 288.06 151.048 287.975 150.895C287.89 150.665 287.635 150.549 287.21 150.549H277.393ZM285.935 95.7624C285.808 93.6139 285.617 90.1609 285.362 85.4035C285.128 80.5693 284.894 76.3874 284.66 72.8577C284.427 69.2512 284.172 65.9134 283.896 62.8441V57.3193C283.725 55.7079 283.428 54.5569 283.003 53.8663V54.0965C282.493 54.4802 281.983 59.6213 281.473 69.5198V75.0446C281.431 75.5817 281.335 76.0804 281.186 76.5408C281.037 77.0012 280.963 77.2698 280.963 77.3465C280.262 88.5495 279.688 97.604 279.242 104.51C279.242 105.277 279.189 106.62 279.082 108.538C278.976 110.457 278.923 111.569 278.923 111.876H286.828C286.828 109.881 286.637 106.275 286.254 101.057V98.5247C286.233 98.2945 286.169 97.8725 286.063 97.2587C285.978 96.5681 285.935 96.0693 285.935 95.7624Z" fill="white"/>
<path d="M330.241 178.173C326.692 178.173 323.505 176.025 320.679 171.728C317.852 167.354 315.536 161.33 313.73 153.657C311.924 145.984 310.543 137.045 309.586 126.839C308.651 116.557 308.184 105.354 308.184 93.2302V91.6188C308.205 91.0817 308.237 89.7772 308.279 87.7054C308.343 85.5569 308.375 84.1757 308.375 83.5619C308.396 82.8713 308.439 81.6052 308.503 79.7636C308.566 77.922 308.619 76.5792 308.662 75.7351C308.704 74.8911 308.758 73.6634 308.821 72.052C308.906 70.4406 308.991 69.1361 309.076 68.1386C309.183 67.0644 309.299 65.7983 309.427 64.3403C309.554 62.8824 309.693 61.5012 309.841 60.1968C309.99 58.8923 310.16 57.5495 310.351 56.1683V56.3985C311.329 49.0322 312.561 42.6634 314.049 37.2921C315.536 31.9208 317.172 27.7772 318.957 24.8614C320.742 21.8688 322.57 19.7203 324.44 18.4158C326.31 17.0347 328.286 16.3441 330.368 16.3441C333.003 16.3441 335.383 17.3032 337.508 19.2215C339.633 21.0631 341.397 23.5569 342.799 26.703C344.202 29.849 345.403 33.6856 346.401 38.2129C347.4 42.6634 348.154 47.2673 348.664 52.0247C349.174 56.7822 349.536 61.9233 349.748 67.448V77.3465C349.684 78.4208 349.525 79.2648 349.27 79.8787C349.015 80.4158 348.739 80.7611 348.441 80.9146C348.144 80.9913 347.729 81.0297 347.198 81.0297H333.556V71.1312C333.45 68.5223 333.141 66.1436 332.632 63.995C332.122 61.8465 331.495 60.7723 330.751 60.7723C330.092 60.7723 329.508 61.271 328.998 62.2686C328.509 63.2661 328.116 64.6089 327.818 66.297C327.542 67.9084 327.308 69.8267 327.117 72.052C326.947 74.2005 326.83 76.5025 326.767 78.9579C326.724 81.3366 326.682 83.7921 326.639 86.3243C326.618 88.7797 326.628 91.12 326.671 93.3453C326.671 94.8799 326.671 95.9926 326.671 96.6832V109.574C326.671 111.493 326.692 113.373 326.735 115.214C326.798 116.979 326.926 119.281 327.117 122.12C327.33 124.959 327.691 127.261 328.201 129.026C328.711 130.791 329.348 131.673 330.113 131.673C330.921 131.673 331.516 130.446 331.898 127.99C332.302 125.535 332.632 122.58 332.887 119.127C333.163 115.674 333.471 113.334 333.811 112.106C334.661 112.106 335.936 112.145 337.636 112.222C339.336 112.298 340.611 112.337 341.461 112.337C342.056 112.337 342.938 112.298 344.106 112.222C345.275 112.145 346.157 112.106 346.752 112.106H349.111C349.812 112.106 350.194 113.641 350.258 116.71V121.084C349.791 136.354 348.229 148.67 345.573 158.031C342.916 167.392 339.591 173.339 335.596 175.871V176.562C334.172 177.636 332.387 178.173 330.241 178.173Z" fill="white"/>
<path d="M354.912 174.95C354.529 172.649 354.274 171.037 354.147 170.116V18.8762H368.235C368.299 18.8762 368.469 18.8762 368.745 18.8762C369.021 18.7995 369.234 18.7995 369.383 18.8762C369.531 18.8762 369.733 18.9146 369.988 18.9913C370.265 19.0681 370.488 19.2215 370.658 19.4517C370.828 19.6052 370.998 19.8738 371.168 20.2574C371.359 20.5644 371.508 21.0248 371.614 21.6386C371.741 22.2525 371.826 22.9431 371.869 23.7104V74.8144C372.57 69.75 373.548 62.4604 374.801 52.9455C376.076 43.4307 377.011 36.5247 377.606 32.2277L379.168 20.1423L382.196 19.797C382.621 19.797 383.259 19.8738 384.109 20.0272C384.98 20.1807 385.617 20.2574 386.021 20.2574H388.444C388.614 20.2574 388.858 20.2191 389.177 20.1423C389.517 20.0656 389.761 20.0272 389.91 20.0272H391.759C391.844 20.0272 391.992 19.9505 392.205 19.797C395.647 19.797 397.368 20.7178 397.368 22.5594C397.368 23.6337 397.177 25.0916 396.795 26.9332C395.817 32.5347 394.17 42.7785 391.854 57.6646C389.538 72.474 387.668 83.6386 386.244 91.1584L398.707 168.735C398.707 168.812 398.707 169.08 398.707 169.541C398.707 170.001 398.707 170.308 398.707 170.462C398.707 170.615 398.697 170.884 398.675 171.267C398.675 171.574 398.665 171.843 398.643 172.073C398.622 172.226 398.59 172.457 398.548 172.764C398.527 172.994 398.484 173.224 398.42 173.454C398.378 173.608 398.325 173.799 398.261 174.03C396.263 173.569 393.289 173.339 389.336 173.339C388.805 173.339 387.987 173.377 386.882 173.454C385.777 173.531 384.959 173.569 384.427 173.569H380.093V170.347C379.753 168.275 379.019 164.208 377.893 158.146C376.767 152.084 375.949 147.327 375.439 143.874L371.869 119.243V170.347C371.571 173.416 370.403 174.95 368.363 174.95H354.912Z" fill="white"/>
<path d="M421.211 10.1287C421.211 9.28465 421.338 8.55569 421.593 7.94183C421.869 7.25124 422.262 6.75248 422.772 6.44554C423.282 6.06188 423.792 5.75495 424.302 5.52475C424.812 5.29455 425.418 5.14109 426.119 5.06436C426.842 4.98762 427.437 4.94926 427.904 4.94926C428.372 4.94926 428.903 4.98762 429.498 5.06436C430.114 5.06436 430.475 5.06436 430.582 5.06436H434.152C434.853 5.06436 435.83 4.98762 437.084 4.83416C438.359 4.68069 439.294 4.60396 439.889 4.60396C450.025 4.60396 457.271 10.896 461.627 23.4802L462.775 27.1634C463.136 28.3911 463.54 30.0025 463.986 31.9975C464.432 33.9158 464.974 36.87 465.612 40.8601C466.27 44.7735 466.855 49.0322 467.365 53.6361C467.875 58.2401 468.31 63.9183 468.672 70.6708C469.033 77.4233 469.213 84.4059 469.213 91.6188C469.213 102.822 468.788 113.296 467.938 123.041C467.088 132.786 465.92 141.226 464.432 148.363C462.966 155.499 461.234 161.676 459.237 166.894C457.26 172.035 455.114 175.91 452.798 178.519C450.482 181.051 448.091 182.317 445.626 182.317H444.606C443.693 182.317 442.333 182.24 440.526 182.087C438.72 181.933 437.36 181.856 436.447 181.856C431.113 181.856 426.289 182.163 421.975 182.777C421.466 179.094 421.211 175.718 421.211 172.649V10.1287ZM439.953 142.262C441.228 142.262 442.375 141.764 443.395 140.766C444.415 139.692 445.276 138.311 445.977 136.623C446.678 134.934 447.294 132.786 447.826 130.177C448.357 127.568 448.771 124.882 449.069 122.12C449.388 119.358 449.632 116.212 449.802 112.682C449.993 109.075 450.121 105.699 450.184 102.553C450.248 99.3304 450.28 95.7624 450.28 91.849V84.7129C450.28 70.5941 449.504 60.1968 447.953 53.521C446.402 46.7686 443.693 43.2005 439.825 42.8168C439.719 43.6609 439.549 44.8119 439.315 46.2698C439.081 47.7277 438.911 48.8787 438.805 49.7228V55.2475C438.805 56.3985 438.795 59.3911 438.773 64.2252C438.497 115.636 438.89 141.649 439.953 142.262Z" fill="white"/>
<path d="M473.038 30.3861C473.038 25.7822 473.091 23.0965 473.198 22.3292C473.389 21.2549 473.697 20.7178 474.122 20.7178H474.887C475.227 20.7178 475.461 20.7946 475.588 20.948H477.246C479.392 20.948 482.633 20.7562 486.967 20.3725C491.324 19.9889 494.585 19.797 496.753 19.797H505.232C505.784 20.0272 506.06 21.0248 506.06 22.7896V61.2327C506.039 61.6931 505.996 62.1151 505.933 62.4988C505.89 62.8057 505.848 63.0359 505.805 63.1894C505.784 63.2661 505.688 63.5347 505.518 63.995C505.348 64.3787 505.232 64.6856 505.168 64.9158H490.378V79.1881H491.78C493.013 79.1881 494.894 79.0347 497.422 78.7277C499.951 78.4208 501.895 78.2673 503.255 78.2673C503.85 78.2673 504.254 78.6894 504.467 79.5334C504.679 80.3775 504.785 81.5668 504.785 83.1015C504.785 83.4851 504.764 84.1374 504.722 85.0582C504.679 85.979 504.658 86.6312 504.658 87.0148V91.3886C504.658 91.6955 504.668 92.3478 504.69 93.3453C504.711 94.2661 504.722 95.0718 504.722 95.7624V98.9851C504.722 100.673 504.743 102.361 504.785 104.049C504.828 105.738 504.849 107.196 504.849 108.423V111.416C504.743 112.337 504.658 112.95 504.594 113.257C504.53 113.564 504.424 113.718 504.275 113.718V113.488C503.489 113.488 502.129 113.679 500.195 114.063C498.283 114.447 496.753 114.639 495.605 114.639H490.506V129.371C490.676 129.371 490.931 129.41 491.271 129.486C491.611 129.563 491.866 129.601 492.035 129.601C492.992 129.601 494.405 129.486 496.275 129.256C498.145 129.026 499.494 128.911 500.323 128.911H504.403C505.508 128.911 506.209 129.371 506.506 130.292C506.613 130.752 506.698 131.213 506.761 131.673V168.505C506.761 170.116 506.676 171.344 506.506 172.188C506.336 173.032 506.018 173.493 505.55 173.569H473.995L473.038 170.577V30.3861Z" fill="white"/>
<path d="M531.91 77.8069C532.059 74.8911 532.463 69.328 533.122 61.1176C533.802 52.8304 534.205 46.2698 534.333 41.4356V33.3787C534.333 33.2252 534.354 32.573 534.397 31.422C534.46 30.271 534.492 29.5804 534.492 29.3502C534.513 29.12 534.545 28.5446 534.588 27.6238C534.652 26.6262 534.705 25.974 534.747 25.6671C534.811 25.3601 534.885 24.8614 534.97 24.1708C535.077 23.4802 535.183 23.0198 535.289 22.7896C535.395 22.4827 535.523 22.1374 535.672 21.7537C535.842 21.37 536.022 21.1015 536.213 20.948C536.426 20.7946 536.649 20.7178 536.883 20.7178H551.418C551.46 20.7946 551.588 21.1015 551.8 21.6386C552.013 22.1757 552.183 22.6361 552.31 23.0198C552.459 23.4035 552.544 23.7104 552.565 23.9406L541.887 162.635C541.653 165.858 541.356 168.582 540.995 170.807C540.655 172.955 540.261 174.03 539.815 174.03H518.013C517.673 169.119 517.28 163.325 516.834 156.65C516.388 149.974 515.941 143.337 515.495 136.738C515.049 130.062 514.656 124.23 514.316 119.243L506.57 24.1708C506.57 22.4059 506.921 21.2549 507.622 20.7178V20.2574C508.897 20.2574 510.82 20.1807 513.391 20.0272C515.984 19.8738 517.864 19.797 519.033 19.797H524.261C524.409 19.797 524.505 19.9121 524.547 20.1423C524.611 20.2958 524.675 20.6795 524.739 21.2933C524.824 21.8304 524.93 22.3292 525.057 22.7896L529.615 118.322L532.42 90.4678L531.91 77.8069Z" fill="white"/>
<path d="M554.573 30.3861C554.573 25.7822 554.626 23.0965 554.732 22.3292C554.924 21.2549 555.232 20.7178 555.657 20.7178H556.422C556.762 20.7178 556.996 20.7946 557.123 20.948H558.781C560.927 20.948 564.167 20.7562 568.502 20.3725C572.858 19.9889 576.12 19.797 578.288 19.797H586.766C587.319 20.0272 587.595 21.0248 587.595 22.7896V61.2327C587.574 61.6931 587.531 62.1151 587.468 62.4988C587.425 62.8057 587.383 63.0359 587.34 63.1894C587.319 63.2661 587.223 63.5347 587.053 63.995C586.883 64.3787 586.766 64.6856 586.703 64.9158H571.913V79.1881H573.315C574.548 79.1881 576.428 79.0347 578.957 78.7277C581.486 78.4208 583.43 78.2673 584.79 78.2673C585.385 78.2673 585.789 78.6894 586.001 79.5334C586.214 80.3775 586.32 81.5668 586.32 83.1015C586.32 83.4851 586.299 84.1374 586.256 85.0582C586.214 85.979 586.193 86.6312 586.193 87.0148V91.3886C586.193 91.6955 586.203 92.3478 586.224 93.3453C586.246 94.2661 586.256 95.0718 586.256 95.7624V98.9851C586.256 100.673 586.278 102.361 586.32 104.049C586.363 105.738 586.384 107.196 586.384 108.423V111.416C586.278 112.337 586.193 112.95 586.129 113.257C586.065 113.564 585.959 113.718 585.81 113.718V113.488C585.024 113.488 583.664 113.679 581.73 114.063C579.818 114.447 578.288 114.639 577.14 114.639H572.04V129.371C572.21 129.371 572.465 129.41 572.805 129.486C573.145 129.563 573.4 129.601 573.57 129.601C574.526 129.601 575.94 129.486 577.81 129.256C579.68 129.026 581.029 128.911 581.858 128.911H585.938C587.043 128.911 587.744 129.371 588.041 130.292C588.148 130.752 588.232 131.213 588.296 131.673V168.505C588.296 170.116 588.211 171.344 588.041 172.188C587.871 173.032 587.552 173.493 587.085 173.569H555.529L554.573 170.577V30.3861Z" fill="white"/>
<path d="M592.44 174.49C592.376 174.183 592.27 173.838 592.121 173.454C591.994 173.071 591.845 172.342 591.675 171.267V121.545C591.675 115.022 591.749 105.009 591.898 91.5037C592.047 77.9988 592.121 67.755 592.121 60.7723C592.121 59.2376 592.079 55.9765 591.994 50.9889C591.909 46.0012 591.866 42.0495 591.866 39.1337C591.866 28.3144 592.227 21.7153 592.95 19.3366C597.37 19.6436 600.664 19.797 602.831 19.797H605.891C606.613 19.797 607.166 19.8738 607.548 20.0272C607.591 19.8738 607.697 19.797 607.867 19.797C607.91 19.797 608.09 19.8738 608.409 20.0272C608.749 20.1807 609.015 20.2574 609.206 20.2574C609.737 20.4876 610.183 22.099 610.545 25.0916V26.703C610.545 27.547 610.534 28.7748 610.513 30.3861C610.491 31.9975 610.481 33.2252 610.481 34.0693V39.1337C610.46 39.5173 610.321 40.2079 610.066 41.2054C609.833 42.1262 609.716 42.8936 609.716 43.5074V127.53H623.231C623.571 127.53 623.826 127.568 623.996 127.645C624.166 127.722 624.336 128.067 624.506 128.681C624.676 129.295 624.761 130.215 624.761 131.443V169.886C624.591 172.955 623.571 174.49 621.701 174.49H592.44Z" fill="white"/>
<path d="M625.589 95.7624L625.526 93.2302C625.929 80.7228 626.312 72.0136 626.673 67.1027C627.502 55.5928 628.989 45.9629 631.135 38.2129L631.9 35.4505C632.92 31.1535 634.472 27.4703 636.554 24.401H637.765C639.848 21.2549 643.269 18.3391 648.029 15.6535C649.219 15.6535 650.462 15.9988 651.758 16.6894C653.076 17.3032 654.531 18.3775 656.125 19.9121C657.719 21.37 659.249 23.7488 660.715 27.0483C662.202 30.271 663.435 34.146 664.412 38.6733V41.896C667.897 57.6262 669.64 75.2747 669.64 94.8416C669.64 116.864 668.237 134.819 665.432 148.708L664.157 154.463C663.18 158.837 661.958 162.597 660.492 165.743C659.047 168.889 657.506 171.306 655.87 172.994C654.234 174.605 652.661 175.756 651.153 176.447C649.665 177.137 648.178 177.483 646.69 177.483C644.501 177.483 642.408 176.562 640.411 174.72C638.435 172.802 636.575 169.848 634.833 165.858C633.112 161.868 631.592 156.957 630.275 151.125C628.957 145.293 627.884 138.272 627.056 130.062C626.248 121.775 625.759 112.644 625.589 102.668V95.7624ZM643.12 96.6832C643.12 123.693 644.544 137.198 647.391 137.198C648.178 137.198 648.858 136.661 649.431 135.587C650.026 134.512 650.505 132.863 650.866 130.637C651.227 128.412 651.524 126.149 651.758 123.847C651.992 121.545 652.151 118.667 652.236 115.214C652.343 111.761 652.406 108.73 652.428 106.121C652.47 103.512 652.491 100.366 652.491 96.6832V92.5396C652.491 88.5495 652.428 84.7129 652.3 81.0297C652.173 77.3465 651.949 73.6634 651.631 69.9802C651.333 66.2203 650.866 63.2277 650.228 61.0025C649.591 58.7005 648.815 57.5495 647.901 57.5495C644.714 57.5495 643.12 68.9059 643.12 91.6188V96.6832Z" fill="white"/>
<path d="M674.612 174.49L673.943 97.8342C673.943 92.5396 673.964 86.5545 674.007 79.8787C674.049 73.203 674.102 67.1795 674.166 61.8082C674.23 56.4369 674.283 50.3366 674.325 43.5074C674.389 36.6782 674.421 30.4629 674.421 24.8614C674.421 23.3267 674.559 22.3676 674.835 21.9839C675.133 21.5235 675.494 21.37 675.919 21.5235C676.365 21.677 676.865 21.5619 677.417 21.1782H700.239C701.535 21.1782 702.832 21.7921 704.128 23.0198C705.424 24.1708 706.688 26.0891 707.921 28.7748C709.175 31.3837 710.269 34.6064 711.204 38.4431C712.16 42.203 712.925 46.922 713.499 52.6002C714.094 58.2785 714.391 64.5322 714.391 71.3614C714.391 80.4158 713.86 88.4728 712.798 95.5322C711.735 102.515 710.142 109.114 708.017 115.329C705.403 120.24 702.258 123.079 698.582 123.847H697.562C696.712 124.46 695.862 124.767 695.012 124.767H692.462C692.334 124.767 692.228 124.844 692.143 124.998C692.143 145.101 692.228 160.295 692.398 170.577C692.292 172.111 692.058 173.147 691.697 173.684C691.357 174.222 690.762 174.49 689.912 174.49H674.612ZM690.549 86.5545V88.6262C690.571 88.703 690.709 88.9715 690.964 89.4319C691.24 89.8156 691.378 90.0842 691.378 90.2376V90.4678C691.336 90.4678 691.314 90.3144 691.314 90.0074C691.357 90.1609 691.484 90.2376 691.697 90.2376C693.588 90.2376 695.182 88.703 696.478 85.6337C697.796 82.5644 698.454 77.8069 698.454 71.3614C698.454 68.4455 698.316 65.9517 698.04 63.8799C697.764 61.8082 697.424 60.2351 697.02 59.1609C696.637 58.0099 696.106 57.1658 695.426 56.6287C694.767 56.0149 694.162 55.6312 693.609 55.4777C693.057 55.3243 692.356 55.2475 691.506 55.2475C691.484 55.3243 691.399 55.5928 691.251 56.0532C691.102 56.5136 690.996 56.8589 690.932 57.0891V69.0594C690.677 76.4257 690.549 82.2574 690.549 86.5545Z" fill="white"/>
<path d="M717.515 30.3861C717.515 25.7822 717.568 23.0965 717.675 22.3292C717.866 21.2549 718.174 20.7178 718.599 20.7178H719.364C719.704 20.7178 719.938 20.7946 720.065 20.948H721.723C723.869 20.948 727.109 20.7562 731.444 20.3725C735.8 19.9889 739.062 19.797 741.23 19.797H749.708C750.261 20.0272 750.537 21.0248 750.537 22.7896V61.2327C750.516 61.6931 750.473 62.1151 750.41 62.4988C750.367 62.8057 750.325 63.0359 750.282 63.1894C750.261 63.2661 750.165 63.5347 749.995 63.995C749.825 64.3787 749.708 64.6856 749.645 64.9158H734.855V79.1881H736.257C737.49 79.1881 739.37 79.0347 741.899 78.7277C744.428 78.4208 746.372 78.2673 747.732 78.2673C748.327 78.2673 748.731 78.6894 748.943 79.5334C749.156 80.3775 749.262 81.5668 749.262 83.1015C749.262 83.4851 749.241 84.1374 749.198 85.0582C749.156 85.979 749.135 86.6312 749.135 87.0148V91.3886C749.135 91.6955 749.145 92.3478 749.166 93.3453C749.188 94.2661 749.198 95.0718 749.198 95.7624V98.9851C749.198 100.673 749.22 102.361 749.262 104.049C749.305 105.738 749.326 107.196 749.326 108.423V111.416C749.22 112.337 749.135 112.95 749.071 113.257C749.007 113.564 748.901 113.718 748.752 113.718V113.488C747.966 113.488 746.606 113.679 744.672 114.063C742.76 114.447 741.23 114.639 740.082 114.639H734.982V129.371C735.152 129.371 735.407 129.41 735.747 129.486C736.087 129.563 736.342 129.601 736.512 129.601C737.469 129.601 738.882 129.486 740.752 129.256C742.622 129.026 743.971 128.911 744.8 128.911H748.88C749.985 128.911 750.686 129.371 750.983 130.292C751.09 130.752 751.175 131.213 751.238 131.673V168.505C751.238 170.116 751.153 171.344 750.983 172.188C750.813 173.032 750.495 173.493 750.027 173.569H718.471L717.515 170.577V30.3861Z" fill="white"/>
<path d="M754.936 20.7178H760.864C762.692 20.7178 765.614 20.5644 769.63 20.2574C773.646 19.9505 776.653 19.797 778.65 19.797C780.372 19.797 781.976 20.1423 783.463 20.8329C784.972 21.5235 786.449 22.7896 787.894 24.6312C789.36 26.4728 790.603 28.8131 791.623 31.6522C792.664 34.4913 793.504 38.2512 794.141 42.9319C794.779 47.5359 795.098 52.8688 795.098 58.9307C795.098 67.2946 794.556 74.4307 793.472 80.3391C792.388 86.2475 790.72 91.2351 788.468 95.302C789.36 96.6832 790.136 98.4864 790.794 100.712C791.453 102.937 791.953 104.855 792.293 106.467C792.654 108.078 792.994 110.802 793.313 114.639C793.653 118.399 793.854 120.892 793.918 122.12C793.982 123.271 794.12 126.187 794.333 130.868C794.396 131.942 794.439 132.748 794.46 133.285C794.545 136.354 794.906 141.994 795.544 150.204C796.181 158.338 796.5 164.592 796.5 168.965C796.5 171.728 796.266 173.109 795.799 173.109C794.524 173.109 792.59 173.147 789.998 173.224C787.426 173.301 785.514 173.339 784.26 173.339C783.75 173.186 782.985 173.109 781.965 173.109H779.798C779.373 172.649 778.958 170.27 778.555 165.973C778.151 161.676 777.864 156.842 777.694 151.47L776.993 130.983C776.865 129.295 776.759 128.105 776.674 127.415C776.61 126.647 776.483 125.765 776.292 124.767C776.1 123.693 775.835 122.964 775.495 122.58C775.176 122.197 774.762 122.005 774.252 122.005H772.785V168.045C772.785 168.275 772.785 168.658 772.785 169.196C772.785 169.656 772.785 170.001 772.785 170.231C772.785 170.385 772.785 170.653 772.785 171.037C772.785 171.421 772.775 171.728 772.754 171.958C772.732 172.111 772.711 172.342 772.69 172.649C772.669 172.955 772.637 173.186 772.594 173.339C772.573 173.416 772.53 173.569 772.467 173.799C772.424 173.953 772.36 174.068 772.275 174.145C772.212 174.222 772.127 174.298 772.02 174.375C771.935 174.452 771.829 174.49 771.702 174.49H754.936V20.7178ZM772.977 81.4901C773.019 81.6436 773.083 81.9889 773.168 82.526C773.253 82.9864 773.338 83.37 773.423 83.677C773.508 83.9839 773.593 84.1757 773.678 84.2525C774.315 84.2525 774.953 84.0223 775.59 83.5619C776.228 83.0247 776.876 82.1807 777.535 81.0297C778.215 79.8787 778.757 78.1139 779.16 75.7351C779.585 73.3564 779.798 70.5173 779.798 67.2178C779.798 59.2376 777.673 55.2475 773.423 55.2475C772.998 55.6312 772.785 56.245 772.785 57.0891V61.4629C772.785 63.6881 772.817 67.026 772.881 71.4765C772.945 75.927 772.977 79.2648 772.977 81.4901Z" fill="white"/>
</svg>
