<svg width="142" height="142" viewBox="0 0 142 142" fill="none" xmlns="http://www.w3.org/2000/svg">
<g filter="url(#filter0_d_259_2125)">
<rect x="46" y="46" width="50" height="50" rx="25" fill="white"/>
<path d="M78.6507 66.8335H76.0007V58.5002C76.0007 57.5835 75.2507 56.8335 74.334 56.8335H67.6673C66.7507 56.8335 66.0007 57.5835 66.0007 58.5002V66.8335H63.3507C61.8673 66.8335 61.1173 68.6335 62.1673 69.6835L69.8173 77.3335C70.4673 77.9835 71.5173 77.9835 72.1673 77.3335L79.8173 69.6835C80.8673 68.6335 80.134 66.8335 78.6507 66.8335ZM59.334 83.5002C59.334 84.4168 60.084 85.1668 61.0007 85.1668H81.0007C81.9173 85.1668 82.6673 84.4168 82.6673 83.5002C82.6673 82.5835 81.9173 81.8335 81.0007 81.8335H61.0007C60.084 81.8335 59.334 82.5835 59.334 83.5002Z" fill="black"/>
</g>
<defs>
<filter id="filter0_d_259_2125" x="0.200001" y="0.200001" width="141.6" height="141.6" filterUnits="userSpaceOnUse" color-interpolation-filters="sRGB">
<feFlood flood-opacity="0" result="BackgroundImageFix"/>
<feColorMatrix in="SourceAlpha" type="matrix" values="0 0 0 0 0 0 0 0 0 0 0 0 0 0 0 0 0 0 127 0" result="hardAlpha"/>
<feOffset/>
<feGaussianBlur stdDeviation="22.9"/>
<feComposite in2="hardAlpha" operator="out"/>
<feColorMatrix type="matrix" values="0 0 0 0 1 0 0 0 0 1 0 0 0 0 1 0 0 0 0.6 0"/>
<feBlend mode="normal" in2="BackgroundImageFix" result="effect1_dropShadow_259_2125"/>
<feBlend mode="normal" in="SourceGraphic" in2="effect1_dropShadow_259_2125" result="shape"/>
</filter>
</defs>
</svg>
