<svg width="30" height="30" viewBox="0 0 30 30" fill="none" xmlns="http://www.w3.org/2000/svg">
<g opacity="0.6" clip-path="url(#clip0_19_96)">
<path d="M21.9127 18.258C21.9127 19.518 22.2712 20.0205 23.2087 20.0205C25.2982 20.0205 26.6287 17.358 26.6287 12.93C26.6287 6.16195 21.6967 2.92196 15.5392 2.92196C9.20466 2.92196 3.44316 7.16995 3.44316 15.198C3.44316 22.866 8.48316 27.042 16.2232 27.042C18.8512 27.042 20.6152 26.754 23.3137 25.854L23.8927 28.2645C21.2287 29.13 18.3817 29.3805 16.1872 29.3805C6.03516 29.3805 0.597656 23.8005 0.597656 15.1965C0.597656 6.52045 6.89916 0.616455 15.5752 0.616455C24.6112 0.616455 29.3977 6.01645 29.3977 12.6405C29.3977 18.2565 27.6352 22.5405 22.0912 22.5405C19.5697 22.5405 17.9152 21.5325 17.6992 19.299C17.0512 21.783 15.3232 22.5405 12.9817 22.5405C9.84966 22.5405 7.22166 20.127 7.22166 15.2685C7.22166 10.3725 9.52716 7.34845 13.6672 7.34845C15.8632 7.34845 17.2312 8.21245 17.8402 9.58045L18.8857 7.67245H21.9097V18.258H21.9127ZM17.4862 13.506C17.4862 11.5275 16.0087 10.698 14.7847 10.698C13.4527 10.698 11.9782 11.7765 11.9782 14.946C11.9782 17.466 13.0942 18.87 14.7847 18.87C15.9727 18.87 17.4862 18.114 17.4862 16.026V13.506Z" fill="white"/>
</g>
<defs>
<clipPath id="clip0_19_96">
<rect width="30" height="30" fill="white"/>
</clipPath>
</defs>
</svg>
