<svg width="36" height="33" viewBox="0 0 36 33" fill="none" xmlns="http://www.w3.org/2000/svg">
<path d="M19.166 18.5045L19.0243 31.123C18.8982 31.369 18.7044 31.576 18.4645 31.7206C18.2245 31.8653 17.948 31.9419 17.6659 31.9419C17.3839 31.9419 17.1074 31.8653 16.8674 31.7206C16.6275 31.576 16.4337 31.369 16.3076 31.123L16.8674 18.7454L2.29761 21.2495C2.0184 21.2117 1.7557 21.0982 1.5395 20.9219C1.32329 20.7455 1.16229 20.5135 1.07487 20.2522C0.987457 19.9909 0.977146 19.7109 1.04512 19.4442C1.11309 19.1775 1.2566 18.9347 1.45928 18.7437L15.666 16.0045L6.80928 2.78624C6.59761 1.58699 7.89761 0.673737 9.00928 1.23924L17.6659 14.5045L26.3243 1.23924C27.4343 0.672112 28.7343 1.58699 28.5226 2.78786L19.166 15.5045L33.8726 18.7454C34.0743 18.9365 34.2169 19.179 34.2843 19.4452C34.3517 19.7115 34.3412 19.9908 34.2538 20.2515C34.1665 20.5122 34.0059 20.7438 33.7903 20.9199C33.5747 21.096 33.3128 21.2096 33.0343 21.2479L19.166 18.5045Z" fill="white" stroke="white" stroke-width="1.5" stroke-linecap="round" stroke-linejoin="round"/>
</svg>
