<svg width="38" height="30" viewBox="0 0 38 30" fill="none" xmlns="http://www.w3.org/2000/svg">
<path d="M34.0458 14.4029C32.5458 14.1491 30.9833 13.9829 29.7133 13.9379L29.4883 13.9304C29.5408 13.8179 29.5795 13.7429 29.592 13.7304C29.6195 13.7079 29.642 13.6129 29.6445 13.5204C29.6445 13.4704 29.667 13.3029 29.702 13.0829C30.047 13.0954 30.502 13.1054 31.002 13.1079C32.922 13.1241 34.932 13.2791 36.3108 13.5229C37.132 13.6679 37.4033 13.6629 36.7983 13.5154C36.1833 13.3654 34.3633 13.1479 32.9133 13.0529C31.85 12.9889 30.7847 12.963 29.7195 12.9754C29.7445 12.8329 29.7695 12.6754 29.7995 12.5129C29.9145 11.8829 29.9533 11.2504 29.9558 9.99161C29.9583 8.04161 29.8533 7.50411 29.2183 6.21161C28.9784 5.71364 28.6737 5.24961 28.312 4.83161C28.6208 3.91911 28.612 2.50911 28.2933 1.27161C28.0308 0.25661 27.937 0.19161 27.0183 0.38661C26.237 0.55286 25.612 0.77911 24.8108 1.18286C24.4308 1.37411 23.9083 1.67036 23.5295 1.90536C22.542 1.55911 21.5208 1.33036 20.4295 1.20536C19.3258 1.08036 16.617 1.15036 15.6545 1.32786C14.717 1.50286 13.8695 1.71536 13.1045 1.96536C12.7208 1.73036 12.167 1.41161 11.7695 1.21161C10.9645 0.80661 10.3395 0.58161 9.55704 0.41536C8.63954 0.21911 8.54454 0.28536 8.28204 1.30036C7.95704 2.55411 7.95454 3.98786 8.27579 4.89786C8.31329 5.00161 8.33579 5.07536 8.34454 5.13286C7.04204 6.77286 6.61704 8.60786 6.89954 11.1704C6.97454 11.8366 7.08704 12.4491 7.24704 13.0104C6.41579 13.0054 5.23454 13.0354 4.37954 13.0904C2.92704 13.1866 1.10704 13.4029 0.492038 13.5529C-0.111712 13.6991 0.157038 13.7029 0.979538 13.5604C2.35829 13.3179 4.36954 13.1604 6.28954 13.1479C6.65204 13.1454 6.98954 13.1379 7.28204 13.1304C7.36954 13.4266 7.46954 13.7091 7.58204 13.9779H7.57579C6.30704 14.0229 4.74579 14.1904 3.24454 14.4404C2.11954 14.6304 0.457038 15.0079 0.262038 15.1154C0.0570379 15.2304 0.224538 15.2054 1.09579 14.9841C2.68704 14.5816 4.75579 14.2716 7.31829 14.0591L7.60579 14.0341C8.15579 15.3091 9.00204 16.2841 10.1995 17.0466C10.932 17.5116 12.1058 17.9904 12.697 18.0654C12.8595 18.0854 13.332 18.1829 13.747 18.2804C14.1633 18.3779 14.977 18.5241 15.5545 18.6079H15.567L15.537 18.6279C14.837 18.9904 14.382 19.5579 14.0745 20.4491C13.937 20.4904 13.767 20.5466 13.582 20.6116C12.9195 20.8366 12.6633 20.8816 11.9945 20.8866C11.2983 20.8916 11.132 20.8616 10.7195 20.6666C10.0799 20.3521 9.54436 19.86 9.17704 19.2491C8.55204 18.2166 7.46829 17.4866 6.56454 17.4866C5.79454 17.4866 5.64829 17.7991 6.20579 18.2554C7.04579 18.9429 7.67329 19.6429 7.93079 20.1779L8.42704 21.2079C8.56454 21.4916 8.85454 21.8766 9.13204 22.1429C9.78454 22.7654 10.4145 23.0629 11.3545 23.2029C11.9845 23.2954 12.1395 23.2954 12.8833 23.2004C13.242 23.1566 13.5458 23.1054 13.8158 23.0416V24.1091C13.8158 26.3166 13.7908 27.0266 13.7033 27.2341C13.537 27.6291 13.1658 28.0341 12.807 28.2179C12.4483 28.4016 12.337 28.6029 12.4883 28.7879C12.5733 28.8879 12.7345 28.9054 13.2758 28.8704C14.3033 28.8079 15.0295 28.4266 15.4008 27.7579C15.5183 27.5416 15.5458 27.1079 15.5833 24.8579C15.6233 22.4179 15.6408 22.1829 15.7995 21.8329C15.8945 21.6266 16.0333 21.4016 16.112 21.3404C16.2408 21.2329 16.2495 21.4454 16.2495 24.3654C16.2495 27.5879 16.2158 27.9779 15.8933 28.5966C15.8208 28.7379 15.6833 28.9216 15.587 29.0091C15.4183 29.1629 15.347 29.5566 15.4645 29.6754C15.6583 29.8679 16.6295 29.5654 17.1595 29.1479C18.062 28.4329 18.1695 27.8416 18.177 23.5729L18.1808 21.0666L18.4558 21.0916L18.7283 21.1166L18.7733 24.3916C18.8233 28.0816 18.8308 28.1354 19.4583 28.8479C19.8145 29.2504 20.1733 29.4729 20.7583 29.6479C21.5383 29.8816 21.7733 29.5191 21.2483 28.8904C20.677 28.2054 20.6483 27.9441 20.6808 23.8966C20.702 21.3016 20.702 21.3016 20.8683 21.4529C21.222 21.7729 21.2895 22.2979 21.2895 24.7316C21.2895 27.7541 21.377 28.0416 22.4433 28.5691C22.9433 28.8129 23.0808 28.8441 23.7208 28.8441C24.4008 28.8479 24.442 28.8379 24.467 28.6604C24.4883 28.5166 24.4045 28.4191 24.087 28.2254C23.6951 27.994 23.3856 27.6456 23.202 27.2291C23.1333 27.0716 23.087 26.0316 23.0558 23.8916C23.0108 20.8991 23.0008 20.7629 22.8145 20.2941C22.5645 19.6641 22.1795 19.1666 21.6933 18.8366C21.5683 18.7541 21.4408 18.6866 21.277 18.6341C21.477 18.6141 21.6733 18.5929 21.862 18.5654C23.827 18.3029 24.8658 18.0854 25.6995 17.7629C27.462 17.0841 28.6558 15.9566 29.302 14.3579C29.3595 14.2154 29.417 14.0804 29.4645 13.9704L29.9645 14.0129C32.527 14.2291 34.5958 14.5379 36.187 14.9416C37.0595 15.1641 37.2245 15.1916 37.022 15.0741C36.832 14.9679 35.1695 14.5916 34.0445 14.4029H34.0458ZM26.5283 14.3629C26.237 15.0029 25.4245 15.8254 24.7683 16.1479C24.1208 16.4679 23.1058 16.7104 21.9558 16.8279C21.1683 16.9079 16.7845 16.9316 16.0608 16.8604C13.6645 16.6254 12.3233 16.1641 11.332 15.2404C10.3945 14.3629 9.95704 13.1716 10.032 11.7054C10.082 10.7879 10.3033 10.2116 10.882 9.51161C11.407 8.87411 11.962 8.48036 12.6145 8.28036C13.162 8.11286 14.8395 8.09786 17.092 8.24286C18.0883 8.30536 18.912 8.30536 19.907 8.24286C22.2645 8.09286 23.8383 8.11036 24.4195 8.29036C25.332 8.57286 26.1658 9.33286 26.6658 10.3454C26.8908 10.7979 26.9358 10.9904 26.9683 11.6891C27.0133 12.6516 26.847 13.6729 26.5308 14.3616L26.5283 14.3629ZM14.6408 10.2304C13.2995 9.99536 12.5333 12.2929 13.562 13.4641C14.0495 14.0191 14.4833 14.1104 15.0245 13.7729C15.5283 13.4604 15.7995 12.8729 15.7995 12.1129C15.7995 11.0979 15.3395 10.3529 14.6395 10.2279L14.6408 10.2304ZM22.782 10.3679C21.4408 10.1329 20.6733 12.4266 21.702 13.6004C22.1933 14.1566 22.627 14.2504 23.1695 13.9091C23.6695 13.5966 23.9445 13.0091 23.9445 12.2491C23.9445 11.2391 23.482 10.4916 22.782 10.3679ZM19.1745 14.8829C19.1445 14.9754 19.0045 15.1129 18.862 15.1866C18.5058 15.3704 18.2495 15.3066 17.8708 14.9616C17.637 14.7516 17.5308 14.6404 17.4583 14.8616C17.3933 15.0666 17.8083 15.4779 18.1308 15.6041C18.4258 15.7229 18.637 15.7266 18.9558 15.5916C19.2745 15.4604 19.552 15.1041 19.552 14.8729C19.552 14.6579 19.2433 14.6679 19.1733 14.8854L19.1745 14.8829ZM18.777 14.1641C18.9808 13.9829 19.027 13.6141 18.832 13.4166C18.637 13.2191 18.2408 13.2504 18.0858 13.4704C17.9045 13.7279 18.0008 13.9241 18.1295 14.1329C18.3295 14.2879 18.5983 14.3204 18.7758 14.1629L18.777 14.1641Z" fill="#7A7A7A"/>
</svg>
