<svg width="41" height="47" viewBox="0 0 41 47" fill="none" xmlns="http://www.w3.org/2000/svg">
<path d="M22.3212 27.7237L22.132 27.232L22.3212 27.7237ZM27.9392 20.0985L28.2087 19.6457L27.9392 20.0985ZM25.8945 43.9636C25.6042 43.9427 25.3859 43.6904 25.4068 43.4002L25.7474 38.6705C25.7683 38.3803 26.0206 38.1619 26.3108 38.1828C26.601 38.2037 26.8194 38.4559 26.7985 38.7462L26.4957 42.9504L30.6999 43.2532C30.9901 43.2741 31.2085 43.5263 31.1876 43.8165C31.1667 44.1068 30.9144 44.3251 30.6242 44.3042L25.8945 43.9636ZM11.7545 0.920405C15.2319 4.45955 20.2676 10.2355 23.3019 15.5857C24.8134 18.2509 25.8679 20.8777 25.9318 23.1007C25.964 24.2235 25.7443 25.268 25.1794 26.1593C24.6126 27.0533 23.7274 27.7472 22.5104 28.2155L22.132 27.232C23.1781 26.8295 23.8649 26.2646 24.2894 25.5951C24.7156 24.9227 24.9063 24.0987 24.8784 23.131C24.8222 21.1732 23.8747 18.7317 22.3853 16.1055C19.4176 10.8728 14.4557 5.17319 11.0028 1.65894L11.7545 0.920405ZM22.5104 28.2155C21.2587 28.697 20.129 28.7991 19.1459 28.5892C18.1606 28.3789 17.3576 27.8623 16.7539 27.1664C15.5582 25.7881 15.1486 23.7205 15.5424 21.8587C15.9397 19.9797 17.1742 18.232 19.3489 17.5812C21.5032 16.9364 24.4489 17.4083 28.2087 19.6457L27.6698 20.5513C24.0352 18.3883 21.406 18.0654 19.6511 18.5907C17.9165 19.1098 16.9074 20.497 16.5733 22.0767C16.2356 23.6736 16.6066 25.3886 17.5499 26.4759C18.0157 27.0128 18.6218 27.3998 19.3659 27.5587C20.1123 27.718 21.0325 27.655 22.132 27.232L22.5104 28.2155ZM28.2087 19.6457C31.2452 21.4528 33.0426 23.5737 33.8973 25.8487C34.7511 28.1212 34.6411 30.4856 33.9772 32.74C32.6562 37.2255 29.1139 41.3808 26.2772 43.8364L25.5875 43.0397C28.3492 40.649 31.7258 36.6548 32.9664 32.4423C33.5832 30.3477 33.6647 28.2259 32.9109 26.2193C32.158 24.2154 30.5487 22.2645 27.6698 20.5513L28.2087 19.6457Z" fill="#FFF8F8"/>
<circle cx="0.831405" cy="0.831405" r="0.831405" transform="matrix(0.962096 0.272712 0.272712 -0.962096 15.9766 32.8381)" fill="#D9D9D9"/>
<circle cx="0.382187" cy="0.382187" r="0.382187" transform="matrix(-0.512429 0.85873 0.85873 0.512428 23.9902 43.9263)" fill="#D9D9D9"/>
<circle cx="2.3455" cy="2.3455" r="2.3455" transform="matrix(0.908304 0.41831 0.41831 -0.908304 22.5195 9.74414)" fill="#D9D9D9"/>
</svg>
