<svg width="33" height="34" viewBox="0 0 33 34" fill="none" xmlns="http://www.w3.org/2000/svg">
<path d="M25.3383 0.75H7.66167C5.69597 0.75 3.81078 1.53087 2.42083 2.92083C1.03087 4.31078 0.25 6.19597 0.25 8.16167V25.8383C0.25 27.804 1.03087 29.6892 2.42083 31.0792C3.81078 32.4691 5.69597 33.25 7.66167 33.25H25.3383C27.304 33.25 29.1892 32.4691 30.5792 31.0792C31.9691 29.6892 32.75 27.804 32.75 25.8383V8.16167C32.75 6.19597 31.9691 4.31078 30.5792 2.92083C29.1892 1.53087 27.304 0.75 25.3383 0.75ZM11.2383 26.9867C11.2436 27.0774 11.2302 27.1682 11.199 27.2536C11.1679 27.3389 11.1196 27.417 11.0572 27.4831C10.9947 27.5491 10.9195 27.6016 10.836 27.6375C10.7525 27.6734 10.6625 27.6918 10.5717 27.6917H7.605C7.42623 27.6869 7.25643 27.6124 7.13186 27.4841C7.00729 27.3558 6.93783 27.1838 6.93833 27.005V14.6667C6.93588 14.5776 6.95132 14.4889 6.98372 14.4059C7.01612 14.3229 7.06484 14.2472 7.12699 14.1834C7.18914 14.1195 7.26347 14.0688 7.34557 14.0341C7.42767 13.9995 7.51589 13.9816 7.605 13.9817H10.5717C10.6608 13.9814 10.7492 13.9991 10.8314 14.0336C10.9136 14.0682 10.988 14.119 11.0502 14.1829C11.1124 14.2468 11.1611 14.3225 11.1934 14.4056C11.2257 14.4888 11.241 14.5775 11.2383 14.6667V26.9867ZM9.03333 11.3867C8.71214 11.3843 8.39457 11.3186 8.09875 11.1935C7.80293 11.0683 7.53465 10.8862 7.30924 10.6573C7.08382 10.4285 6.90569 10.1575 6.785 9.85987C6.6643 9.56221 6.60343 9.24369 6.60583 8.9225C6.60824 8.60131 6.67389 8.28374 6.79903 7.98792C6.92417 7.69209 7.10635 7.42382 7.33517 7.1984C7.56398 6.97299 7.83496 6.79485 8.13262 6.67416C8.43029 6.55347 8.74881 6.49259 9.07 6.495C9.70753 6.51573 10.3117 6.78479 10.7536 7.24476C11.1956 7.70473 11.4402 8.3192 11.4355 8.95705C11.4307 9.5949 11.1768 10.2056 10.728 10.6589C10.2793 11.1122 9.6711 11.3722 9.03333 11.3833M27.0617 26.9667C27.0613 27.1352 26.9953 27.297 26.8777 27.4177C26.7601 27.5384 26.6001 27.6086 26.4317 27.6133H23.3C23.1314 27.6081 22.9714 27.5376 22.8538 27.4166C22.7363 27.2956 22.6704 27.1337 22.67 26.965V21.2583C22.67 20.4067 22.93 17.5533 20.41 17.5533C18.445 17.5533 18.0567 19.5533 17.9817 20.4433V27.095C17.9817 27.264 17.916 27.4264 17.7984 27.5477C17.6808 27.669 17.5206 27.7398 17.3517 27.745H14.3133C14.2281 27.745 14.1436 27.7282 14.0648 27.6955C13.9861 27.6628 13.9145 27.6149 13.8543 27.5545C13.7941 27.4941 13.7464 27.4225 13.7139 27.3436C13.6814 27.2648 13.6648 27.1803 13.665 27.095V14.6067C13.6698 14.4376 13.7404 14.2771 13.8619 14.1594C13.9833 14.0418 14.1459 13.9762 14.315 13.9767H17.3517C17.5208 13.9762 17.6834 14.0418 17.8048 14.1594C17.9262 14.2771 17.9969 14.4376 18.0017 14.6067V15.6817C18.4451 15.0327 19.0572 14.5171 19.7721 14.1905C20.487 13.8639 21.2775 13.7387 22.0583 13.8283C27.1167 13.8283 27.0983 18.5533 27.0983 21.24L27.0617 26.9667Z" fill="#7A7A7A"/>
</svg>
