<svg width="155" height="563" viewBox="0 0 155 563" fill="none" xmlns="http://www.w3.org/2000/svg">
<g opacity="0.4">
<path d="M116.363 27.0898L118.174 17.2903C118.332 17.1125 118.551 16.9725 118.809 16.8859C119.066 16.7993 119.351 16.7696 119.631 16.8C119.911 16.8305 120.176 16.92 120.395 17.0584C120.614 17.1968 120.779 17.3787 120.871 17.5837L118.677 27.1508L133.476 26.777C133.748 26.8365 133.994 26.9532 134.186 27.1137C134.377 27.2743 134.506 27.4721 134.558 27.6848C134.61 27.8975 134.584 28.1164 134.481 28.3165C134.378 28.5166 134.203 28.6899 133.977 28.8166L119.507 29.4124L126.552 40.6506C126.604 41.6063 125.192 42.1762 124.163 41.6162L117.323 30.3631L106.97 39.7456C105.792 40.0668 104.623 39.2148 104.992 38.3036L115.966 29.4232L101.792 25.3137C101.617 25.1432 101.507 24.9392 101.475 24.7248C101.444 24.5104 101.491 24.2943 101.612 24.101C101.734 23.9077 101.924 23.7449 102.161 23.6312C102.398 23.5175 102.674 23.4574 102.955 23.4578L116.363 27.0898Z" fill="white" stroke="white" stroke-width="1.5" stroke-linecap="round" stroke-linejoin="round"/>
<path d="M118.046 32.2623L121.257 27.6335L115.532 26.9017L117.054 32.1356L118.046 32.2623ZM28.5813 551.678C27.1208 551.491 25.7351 552.517 25.4863 553.97C25.2376 555.422 26.2199 556.751 27.6804 556.938C29.1409 557.125 30.5265 556.098 30.7753 554.646C31.0241 553.193 30.0418 551.864 28.5813 551.678ZM117.139 31.6424L27.635 554.244L28.6267 554.371L118.13 31.7692L117.139 31.6424Z" fill="white"/>
<path d="M127.407 192.343L129.82 185.202C129.95 185.077 130.119 184.981 130.307 184.926C130.495 184.871 130.696 184.859 130.886 184.891C131.076 184.923 131.248 184.998 131.383 185.107C131.518 185.216 131.611 185.356 131.651 185.509L129 192.466L139.278 192.695C139.459 192.748 139.615 192.842 139.729 192.966C139.842 193.091 139.908 193.241 139.919 193.399C139.93 193.557 139.885 193.717 139.79 193.86C139.696 194.004 139.554 194.125 139.383 194.211L129.306 194.157L132.847 202.656C132.769 203.361 131.726 203.731 131.08 203.285L127.683 194.781L119.413 201.326C118.561 201.522 117.853 200.856 118.216 200.199L126.856 194.045L117.541 190.542C117.441 190.411 117.389 190.257 117.393 190.099C117.396 189.94 117.455 189.783 117.561 189.645C117.668 189.507 117.819 189.394 117.996 189.318C118.174 189.243 118.371 189.208 118.566 189.218L127.407 192.343Z" fill="white" stroke="white" stroke-width="1.5" stroke-linecap="round" stroke-linejoin="round"/>
<path d="M127.853 197.289L131.543 192.913L125.867 191.841L126.87 197.103L127.853 197.289ZM28.5322 551.775C27.0845 551.501 25.5902 552.43 25.1945 553.85C24.7988 555.269 25.6517 556.642 27.0994 556.915C28.5471 557.189 30.0414 556.26 30.437 554.84C30.8327 553.421 29.9798 552.048 28.5322 551.775ZM127.005 196.621L27.3243 554.252L28.3073 554.438L127.988 196.807L127.005 196.621Z" fill="white"/>
<path d="M65.6825 119.727L65.7 109.115C65.7866 108.912 65.9207 108.743 66.0875 108.628C66.2543 108.513 66.4471 108.456 66.6443 108.464C66.8415 108.471 67.0353 108.544 67.204 108.672C67.3727 108.8 67.5095 108.98 67.5992 109.19L67.2879 119.588L77.4572 117.883C77.6526 117.922 77.837 118.025 77.9893 118.179C78.1416 118.333 78.2556 118.533 78.3184 118.755C78.3812 118.977 78.3902 119.213 78.3444 119.436C78.2987 119.658 78.1999 119.859 78.0594 120.014L68.1455 121.927L74.4225 133.292C74.5782 134.306 73.6753 135.039 72.8945 134.533L66.757 123.134L60.7899 134.056C60.0176 134.502 59.1029 133.697 59.2431 132.692L65.7019 122.251L55.3998 119.12C55.2576 118.953 55.1563 118.745 55.1075 118.52C55.0586 118.294 55.0642 118.059 55.1236 117.842C55.183 117.625 55.2937 117.435 55.4433 117.293C55.5929 117.15 55.7753 117.062 55.9697 117.037L65.6825 119.727Z" fill="white" stroke="white" stroke-width="1.5" stroke-linecap="round" stroke-linejoin="round"/>
<path d="M67.4841 126.223L70.316 121.447L64.5551 120.977L66.4863 126.141L67.4841 126.223ZM28.4348 551.679C26.9652 551.558 25.6664 552.648 25.5338 554.112C25.4011 555.576 26.4849 556.86 27.9545 556.98C29.424 557.1 30.7228 556.011 30.8555 554.547C30.9881 553.083 29.9043 551.799 28.4348 551.679ZM66.5314 125.644L27.6957 554.289L28.6935 554.37L67.5292 125.726L66.5314 125.644Z" fill="white"/>
<path d="M122.926 172.6C126.614 162.833 131.741 161.185 135.198 161.928" stroke="white" stroke-linecap="round"/>
<path d="M70.5526 82.7385C68.2555 72.5541 63.4067 70.2111 59.8804 70.4664" stroke="white" stroke-linecap="round"/>
<path d="M132.539 11.9557C134.141 7.73543 136.369 7.02445 137.872 7.34585" stroke="white" stroke-linecap="round"/>
</g>
</svg>
