<svg width="77" height="77" viewBox="0 0 77 77" fill="none" xmlns="http://www.w3.org/2000/svg">
<g opacity="0.7" filter="url(#filter0_d_256_231)">
<g filter="url(#filter1_d_256_231)">
<path d="M53.9048 38.5C55.0619 38.5 56.013 37.5586 55.8748 36.4097C55.4429 32.8193 53.906 29.4318 51.4508 26.7303C48.5235 23.5092 44.501 21.4946 40.1684 21.0797C35.8357 20.6648 31.5039 21.8793 28.0185 24.4861C24.5331 27.093 22.1442 30.9051 21.3181 35.1785C20.492 39.4518 21.288 43.8797 23.5507 47.5977C25.8134 51.3158 29.3805 54.0573 33.5556 55.287C37.7307 56.5167 42.2143 56.1465 46.1311 54.2485C49.4162 52.6567 52.105 50.086 53.8439 46.9153C54.4003 45.9007 53.8687 44.6726 52.7949 44.2414C51.7211 43.8101 50.5145 44.3426 49.9203 45.3355C48.5966 47.547 46.6502 49.3405 44.3038 50.4775C41.3249 51.921 37.9149 52.2026 34.7395 51.2673C31.5642 50.332 28.8513 48.247 27.1304 45.4193C25.4095 42.5915 24.8041 39.2239 25.4324 35.9738C26.0606 32.7238 27.8775 29.8244 30.5283 27.8418C33.1792 25.8591 36.4737 24.9355 39.7689 25.251C43.064 25.5666 46.1234 27.0988 48.3497 29.5486C50.1033 31.4781 51.241 33.8679 51.645 36.4134C51.8264 37.5562 52.7476 38.5 53.9048 38.5Z" fill="#D9D9D9"/>
</g>
<path d="M31.2178 41.7916L30.99 40.9089C31.7176 40.8267 32.2713 40.6337 32.651 40.3299C33.0306 40.0262 33.2553 39.6086 33.3249 39.0771C32.9579 39.3175 32.5181 39.4377 32.0056 39.4377C31.493 39.4377 31.0912 39.2732 30.8001 38.9442C30.5154 38.6151 30.373 38.1501 30.373 37.5489C30.373 36.9478 30.5534 36.4479 30.914 36.0493C31.2747 35.6443 31.7999 35.4418 32.4896 35.4418C33.1793 35.4418 33.6856 35.6886 34.0083 36.1821C34.331 36.6757 34.4923 37.3369 34.4923 38.1659C34.4923 40.3869 33.4008 41.5955 31.2178 41.7916ZM32.4232 36.3245C32.1384 36.3245 31.9106 36.4321 31.7398 36.6472C31.5689 36.8624 31.4835 37.1503 31.4835 37.511C31.4835 37.8716 31.5563 38.1469 31.7018 38.3367C31.8474 38.5202 32.0277 38.612 32.2428 38.612C32.4643 38.612 32.6795 38.5772 32.8883 38.5076C33.1034 38.4316 33.2679 38.3494 33.3818 38.2608C33.3818 38.2038 33.3818 38.1469 33.3818 38.0899C33.3818 36.913 33.0623 36.3245 32.4232 36.3245ZM36.2972 41.7916L36.0694 40.9089C36.7971 40.8267 37.3508 40.6337 37.7304 40.3299C38.1101 40.0262 38.3347 39.6086 38.4043 39.0771C38.0373 39.3175 37.5975 39.4377 37.085 39.4377C36.5725 39.4377 36.1707 39.2732 35.8796 38.9442C35.5948 38.6151 35.4525 38.1501 35.4525 37.5489C35.4525 36.9478 35.6328 36.4479 35.9935 36.0493C36.3542 35.6443 36.8794 35.4418 37.5691 35.4418C38.2588 35.4418 38.765 35.6886 39.0877 36.1821C39.4104 36.6757 39.5718 37.3369 39.5718 38.1659C39.5718 40.3869 38.4803 41.5955 36.2972 41.7916ZM37.5026 36.3245C37.2179 36.3245 36.9901 36.4321 36.8192 36.6472C36.6484 36.8624 36.563 37.1503 36.563 37.511C36.563 37.8716 36.6357 38.1469 36.7813 38.3367C36.9268 38.5202 37.1072 38.612 37.3223 38.612C37.5438 38.612 37.7589 38.5772 37.9677 38.5076C38.1829 38.4316 38.3474 38.3494 38.4613 38.2608C38.4613 38.2038 38.4613 38.1469 38.4613 38.0899C38.4613 36.913 38.1417 36.3245 37.5026 36.3245ZM44.3855 40.0926C44.3855 39.5295 44.5215 39.0992 44.7936 38.8018C45.0657 38.4981 45.4295 38.3462 45.8851 38.3462C46.3471 38.3462 46.7077 38.4886 46.9672 38.7733C47.2266 39.0581 47.3563 39.4852 47.3563 40.0547C47.3563 40.6242 47.2234 41.0608 46.9577 41.3645C46.6982 41.6619 46.3281 41.8106 45.8472 41.8106C45.3726 41.8106 45.0087 41.6651 44.7556 41.374C44.5089 41.0829 44.3855 40.6558 44.3855 40.0926ZM45.8567 41.1557C46.2996 41.1557 46.5211 40.7982 46.5211 40.0832C46.5211 39.3618 46.3059 39.0011 45.8756 39.0011C45.4327 39.0011 45.2112 39.3618 45.2112 40.0832C45.2112 40.7982 45.4264 41.1557 45.8567 41.1557ZM40.38 37.1882C40.38 36.6251 40.5161 36.1948 40.7882 35.8974C41.0603 35.5937 41.4241 35.4418 41.8797 35.4418C42.3416 35.4418 42.7023 35.5842 42.9617 35.8689C43.2212 36.1537 43.3509 36.5808 43.3509 37.1503C43.3509 37.7198 43.218 38.1564 42.9523 38.4601C42.6928 38.7575 42.3226 38.9062 41.8417 38.9062C41.3672 38.9062 41.0033 38.7607 40.7502 38.4696C40.5034 38.1785 40.38 37.7514 40.38 37.1882ZM41.8512 38.2513C42.2942 38.2513 42.5156 37.8938 42.5156 37.1788C42.5156 36.4574 42.3005 36.0967 41.8702 36.0967C41.4273 36.0967 41.2058 36.4574 41.2058 37.1788C41.2058 37.8938 41.421 38.2513 41.8512 38.2513ZM42.8384 41.7632L42.0885 41.4215L44.86 35.4798L45.6289 35.8025L42.8384 41.7632Z" fill="white"/>
</g>
<defs>
<filter id="filter0_d_256_231" x="18.0213" y="21" width="40.8461" height="40.9574" filterUnits="userSpaceOnUse" color-interpolation-filters="sRGB">
<feFlood flood-opacity="0" result="BackgroundImageFix"/>
<feColorMatrix in="SourceAlpha" type="matrix" values="0 0 0 0 0 0 0 0 0 0 0 0 0 0 0 0 0 0 127 0" result="hardAlpha"/>
<feOffset dy="2.97872"/>
<feGaussianBlur stdDeviation="1.48936"/>
<feComposite in2="hardAlpha" operator="out"/>
<feColorMatrix type="matrix" values="0 0 0 0 0 0 0 0 0 0 0 0 0 0 0 0 0 0 0.25 0"/>
<feBlend mode="normal" in2="BackgroundImageFix" result="effect1_dropShadow_256_231"/>
<feBlend mode="normal" in="SourceGraphic" in2="effect1_dropShadow_256_231" result="shape"/>
</filter>
<filter id="filter1_d_256_231" x="0.819147" y="0.819147" width="75.2504" height="75.3617" filterUnits="userSpaceOnUse" color-interpolation-filters="sRGB">
<feFlood flood-opacity="0" result="BackgroundImageFix"/>
<feColorMatrix in="SourceAlpha" type="matrix" values="0 0 0 0 0 0 0 0 0 0 0 0 0 0 0 0 0 0 127 0" result="hardAlpha"/>
<feOffset/>
<feGaussianBlur stdDeviation="10.0904"/>
<feComposite in2="hardAlpha" operator="out"/>
<feColorMatrix type="matrix" values="0 0 0 0 1 0 0 0 0 1 0 0 0 0 1 0 0 0 0.57 0"/>
<feBlend mode="normal" in2="BackgroundImageFix" result="effect1_dropShadow_256_231"/>
<feBlend mode="normal" in="SourceGraphic" in2="effect1_dropShadow_256_231" result="shape"/>
</filter>
</defs>
</svg>
