<svg width="218" height="60" viewBox="0 0 218 60" fill="none" xmlns="http://www.w3.org/2000/svg">
<path d="M0.313 58.309C0.107667 52.5083 0.00500039 45.5527 0.00500039 37.442C0.00500039 29.28 0.261667 18.3973 0.775 4.794C5.087 3.20266 9.50167 2.407 14.019 2.407C18.5877 2.407 22.643 4.101 26.185 7.489C29.7783 10.8257 31.575 15.0607 31.575 20.194C31.575 25.276 29.6243 29.6907 25.723 33.438C21.873 37.134 16.8167 39.8547 10.554 41.6C10.554 47.3493 10.631 53.2527 10.785 59.31L0.313 58.309ZM18.177 27.971C20.0763 25.7637 21.026 23.2997 21.026 20.579C21.026 17.8583 20.3073 15.651 18.87 13.957C17.484 12.263 15.9183 11.416 14.173 11.416C13.711 11.416 12.6587 11.5443 11.016 11.801C10.7593 19.039 10.6053 26.046 10.554 32.822C13.788 31.7953 16.329 30.1783 18.177 27.971ZM40.2965 43.14C40.2965 48.9407 41.5798 51.841 44.1465 51.841C45.2758 51.841 46.2255 50.224 46.9955 46.99C47.7655 43.7047 48.1505 40.5733 48.1505 37.596C48.1505 31.0253 47.0725 27.74 44.9165 27.74C43.5305 27.74 42.4011 29.511 41.5285 33.053C40.7071 36.5437 40.2965 39.906 40.2965 43.14ZM31.2875 42.447C31.2875 37.673 32.2628 33.0017 34.2135 28.433C35.2401 26.123 36.6775 24.2493 38.5255 22.812C40.4248 21.3233 42.5295 20.579 44.8395 20.579C47.1495 20.579 49.1258 21.118 50.7685 22.196C52.4625 23.2227 53.7458 24.6087 54.6185 26.354C56.3125 29.7933 57.1595 33.5407 57.1595 37.596C57.1595 43.1913 56.0045 48.1707 53.6945 52.534C51.4358 56.846 48.2531 59.002 44.1465 59.002C35.5738 59.002 31.2875 53.4837 31.2875 42.447ZM76.1911 29.203C74.0351 29.203 72.4181 31.9237 71.3401 37.365C71.4428 40.9583 71.4941 44.3977 71.4941 47.683C71.4941 50.9683 71.3914 54.6643 71.1861 58.771L62.2541 58.001C62.4081 50.455 62.4851 46.297 62.4851 45.527C62.4851 36.0303 62.0231 28.7667 61.0991 23.736L66.8741 24.352C67.2334 25.8407 67.6441 27.1497 68.1061 28.279C70.6214 22.889 73.1624 20.194 75.7291 20.194C77.8338 20.194 79.6818 21.118 81.2731 22.966L79.2711 30.05C78.4498 29.4853 77.4231 29.203 76.1911 29.203ZM102.893 24.814V32.129C100.429 32.129 98.5299 32.1547 97.1952 32.206C97.0412 37.3393 96.9642 45.9633 96.9642 58.078L87.8782 57.231C87.8782 48.2477 87.9552 40.1113 88.1092 32.822C87.3392 32.822 85.8762 32.9503 83.7202 33.207L82.5652 26.893C83.7972 26.6363 85.7222 26.3027 88.3402 25.892C88.4429 22.0933 88.6482 16.5493 88.9562 9.26L98.1192 10.107C97.8112 15.189 97.5802 20.117 97.4262 24.891C98.7096 24.8397 100.532 24.814 102.893 24.814ZM108.523 22.735C108.523 15.805 109.549 10.3637 111.603 6.411C113.707 2.407 116.377 0.404999 119.611 0.404999C122.896 0.404999 125.386 2.07333 127.08 5.41C128.825 8.69533 129.698 13.2383 129.698 19.039L122.537 18.269C122.537 12.5197 121.638 9.645 119.842 9.645C118.302 9.645 117.532 14.0083 117.532 22.735V24.968C120.971 24.7113 123.769 24.583 125.925 24.583V31.744C122.383 31.744 119.611 31.8723 117.609 32.129C117.609 39.983 117.891 48.7097 118.456 58.309L109.447 57.385C109.036 50.301 108.754 42.293 108.6 33.361C107.265 33.5663 106.341 33.746 105.828 33.9L104.211 26.97C104.724 26.816 106.161 26.5337 108.523 26.123V22.735ZM136.02 43.14C136.02 48.9407 137.303 51.841 139.87 51.841C140.999 51.841 141.949 50.224 142.719 46.99C143.489 43.7047 143.874 40.5733 143.874 37.596C143.874 31.0253 142.796 27.74 140.64 27.74C139.254 27.74 138.125 29.511 137.252 33.053C136.431 36.5437 136.02 39.906 136.02 43.14ZM127.011 42.447C127.011 37.673 127.986 33.0017 129.937 28.433C130.964 26.123 132.401 24.2493 134.249 22.812C136.148 21.3233 138.253 20.579 140.563 20.579C142.873 20.579 144.849 21.118 146.492 22.196C148.186 23.2227 149.469 24.6087 150.342 26.354C152.036 29.7933 152.883 33.5407 152.883 37.596C152.883 43.1913 151.728 48.1707 149.418 52.534C147.159 56.846 143.977 59.002 139.87 59.002C131.297 59.002 127.011 53.4837 127.011 42.447ZM168.604 1.406C167.834 14.3933 167.449 26.0973 167.449 36.518C167.449 46.9387 167.577 54.2537 167.834 58.463L158.748 57.616C158.542 52.2773 158.44 44.7057 158.44 34.901C158.44 25.045 158.825 13.649 159.595 0.713L168.604 1.406ZM177.022 20.271L185.8 21.118V58.078L177.022 57.231V20.271ZM177.638 6.719L186.262 7.72L185.492 16.344L176.868 15.266L177.638 6.719ZM200.763 43.14C200.763 48.9407 202.047 51.841 204.613 51.841C205.743 51.841 206.692 50.224 207.462 46.99C208.232 43.7047 208.617 40.5733 208.617 37.596C208.617 31.0253 207.539 27.74 205.383 27.74C203.997 27.74 202.868 29.511 201.995 33.053C201.174 36.5437 200.763 39.906 200.763 43.14ZM191.754 42.447C191.754 37.673 192.73 33.0017 194.68 28.433C195.707 26.123 197.144 24.2493 198.992 22.812C200.892 21.3233 202.996 20.579 205.306 20.579C207.616 20.579 209.593 21.118 211.235 22.196C212.929 23.2227 214.213 24.6087 215.085 26.354C216.779 29.7933 217.626 33.5407 217.626 37.596C217.626 43.1913 216.471 48.1707 214.161 52.534C211.903 56.846 208.72 59.002 204.613 59.002C196.041 59.002 191.754 53.4837 191.754 42.447Z" fill="white" fill-opacity="0.7"/>
</svg>
