<svg width="33" height="33" viewBox="0 0 33 33" fill="none" xmlns="http://www.w3.org/2000/svg">
<path fill-rule="evenodd" clip-rule="evenodd" d="M17.1667 12.1945C17.1667 13.0786 17.5179 13.9264 18.143 14.5515C18.7681 15.1766 19.6159 15.5278 20.5 15.5278C21.3841 15.5278 22.2319 15.1766 22.857 14.5515C23.4821 13.9264 23.8333 13.0786 23.8333 12.1945V3.86117C23.8333 2.97711 23.4821 2.12926 22.857 1.50414C22.2319 0.879021 21.3841 0.527832 20.5 0.527832C19.6159 0.527832 18.7681 0.879021 18.143 1.50414C17.5179 2.12926 17.1667 2.97711 17.1667 3.86117V12.1945ZM3.83333 8.86117C2.94928 8.86117 2.10143 9.21236 1.47631 9.83748C0.851189 10.4626 0.5 11.3104 0.5 12.1945C0.5 13.0786 0.851189 13.9264 1.47631 14.5515C2.10143 15.1766 2.94928 15.5278 3.83333 15.5278H12.1667C13.0507 15.5278 13.8986 15.1766 14.5237 14.5515C15.1488 13.9264 15.5 13.0786 15.5 12.1945C15.5 11.3104 15.1488 10.4626 14.5237 9.83748C13.8986 9.21236 13.0507 8.86117 12.1667 8.86117H3.83333ZM20.5 17.1945C19.6159 17.1945 18.7681 17.5457 18.143 18.1708C17.5179 18.7959 17.1667 19.6438 17.1667 20.5278C17.1667 21.4119 17.5179 22.2597 18.143 22.8849C18.7681 23.51 19.6159 23.8612 20.5 23.8612H28.8333C29.7174 23.8612 30.5652 23.51 31.1904 22.8849C31.8155 22.2597 32.1667 21.4119 32.1667 20.5278C32.1667 19.6438 31.8155 18.7959 31.1904 18.1708C30.5652 17.5457 29.7174 17.1945 28.8333 17.1945H20.5ZM12.1667 32.1945C11.2826 32.1945 10.4348 31.8433 9.80964 31.2182C9.18452 30.5931 8.83333 29.7452 8.83333 28.8612V20.5278C8.83333 19.6438 9.18452 18.7959 9.80964 18.1708C10.4348 17.5457 11.2826 17.1945 12.1667 17.1945C13.0507 17.1945 13.8986 17.5457 14.5237 18.1708C15.1488 18.7959 15.5 19.6438 15.5 20.5278V28.8612C15.5 29.7452 15.1488 30.5931 14.5237 31.2182C13.8986 31.8433 13.0507 32.1945 12.1667 32.1945ZM8.83333 3.86117C8.83333 2.97711 9.18452 2.12926 9.80964 1.50414C10.4348 0.879021 11.2826 0.527832 12.1667 0.527832C13.0507 0.527832 13.8986 0.879021 14.5237 1.50414C15.1488 2.12926 15.5 2.97711 15.5 3.86117V7.1945H12.1667C11.2826 7.1945 10.4348 6.84331 9.80964 6.21819C9.18452 5.59307 8.83333 4.74522 8.83333 3.86117ZM0.5 20.5278C0.5 21.4119 0.851189 22.2597 1.47631 22.8849C2.10143 23.51 2.94928 23.8612 3.83333 23.8612C4.71739 23.8612 5.56523 23.51 6.19036 22.8849C6.81548 22.2597 7.16667 21.4119 7.16667 20.5278V17.1945H3.83333C2.94928 17.1945 2.10143 17.5457 1.47631 18.1708C0.851189 18.7959 0.5 19.6438 0.5 20.5278ZM23.8333 28.8612C23.8333 29.7452 23.4821 30.5931 22.857 31.2182C22.2319 31.8433 21.3841 32.1945 20.5 32.1945C19.6159 32.1945 18.7681 31.8433 18.143 31.2182C17.5179 30.5931 17.1667 29.7452 17.1667 28.8612V25.5278H20.5C21.3841 25.5278 22.2319 25.879 22.857 26.5041C23.4821 27.1293 23.8333 27.9771 23.8333 28.8612ZM32.1667 12.1945C32.1667 11.3104 31.8155 10.4626 31.1904 9.83748C30.5652 9.21236 29.7174 8.86117 28.8333 8.86117C27.9493 8.86117 27.1014 9.21236 26.4763 9.83748C25.8512 10.4626 25.5 11.3104 25.5 12.1945V15.5278H28.8333C29.7174 15.5278 30.5652 15.1766 31.1904 14.5515C31.8155 13.9264 32.1667 13.0786 32.1667 12.1945Z" fill="#747474"/>
</svg>
