<svg width="96" height="97" viewBox="0 0 96 97" fill="none" xmlns="http://www.w3.org/2000/svg">
<g filter="url(#filter0_d_259_1132)">
<path d="M70.1111 48.6585C71.7679 48.6585 73.1295 47.3106 72.9316 45.6657C72.3133 40.5253 70.1128 35.6752 66.5976 31.8073C62.4065 27.1956 56.6473 24.3112 50.4441 23.7171C44.2409 23.1231 38.0389 24.8619 33.0487 28.5943C28.0585 32.3266 24.6382 37.7846 23.4554 43.903C22.2727 50.0213 23.4123 56.3608 26.652 61.6841C29.8916 67.0074 34.9987 70.9324 40.9764 72.6931C46.9541 74.4538 53.3733 73.9237 58.9812 71.2063C63.6847 68.9272 67.5343 65.2466 70.0239 60.707C70.8206 59.2544 70.0594 57.4961 68.5221 56.8787C66.9847 56.2612 65.2572 57.0236 64.4063 58.4451C62.5112 61.6114 59.7245 64.1793 56.365 65.8072C52.1 67.8739 47.2178 68.277 42.6715 66.938C38.1251 65.5989 34.241 62.6137 31.7771 58.5651C29.3132 54.5164 28.4464 49.695 29.346 45.0417C30.2455 40.3884 32.8468 36.2373 36.6421 33.3987C40.4374 30.5601 45.1543 29.2376 49.8721 29.6894C54.59 30.1413 58.9701 32.335 62.1577 35.8423C64.6684 38.605 66.2972 42.0265 66.8757 45.671C67.1355 47.3072 68.4544 48.6585 70.1111 48.6585Z" fill="#D9D9D9"/>
</g>
<g opacity="0.2">
<g filter="url(#filter1_d_259_1132)">
<path d="M70.1111 48.6585C71.7679 48.6585 73.1295 47.3106 72.9316 45.6657C72.3133 40.5253 70.1128 35.6752 66.5976 31.8073C62.4065 27.1956 56.6473 24.3112 50.4441 23.7171C44.2409 23.1231 38.0389 24.8619 33.0487 28.5943C28.0585 32.3266 24.6382 37.7846 23.4554 43.903C22.2727 50.0213 23.4123 56.3608 26.652 61.6841C29.8916 67.0074 34.9987 70.9324 40.9764 72.6931C46.9541 74.4538 53.3733 73.9237 58.9812 71.2063C63.6847 68.9272 67.5343 65.2466 70.0239 60.707C70.8206 59.2544 70.0594 57.4961 68.5221 56.8787C66.9847 56.2612 65.2572 57.0236 64.4063 58.4451C62.5112 61.6114 59.7245 64.1793 56.365 65.8072C52.1 67.8739 47.2178 68.277 42.6715 66.938C38.1251 65.5989 34.241 62.6137 31.7771 58.5651C29.3132 54.5164 28.4464 49.695 29.346 45.0417C30.2455 40.3884 32.8468 36.2373 36.6421 33.3987C40.4374 30.5601 45.1543 29.2376 49.8721 29.6894C54.59 30.1413 58.9701 32.335 62.1577 35.8423C64.6684 38.605 66.2972 42.0265 66.8757 45.671C67.1355 47.3072 68.4544 48.6585 70.1111 48.6585Z" fill="#D9D9D9"/>
</g>
</g>
<g opacity="0.7" filter="url(#filter2_d_259_1132)">
<g filter="url(#filter3_d_259_1132)">
<path d="M70.1111 48.6585C71.7679 48.6585 73.1295 47.3106 72.9316 45.6657C72.3133 40.5253 70.1128 35.6752 66.5976 31.8073C62.4065 27.1956 56.6473 24.3112 50.4441 23.7171C44.2409 23.1231 38.0389 24.8619 33.0487 28.5943C28.0585 32.3266 24.6382 37.7846 23.4554 43.903C22.2727 50.0213 23.4123 56.3608 26.652 61.6841C29.8916 67.0074 34.9987 70.9324 40.9764 72.6931C46.9541 74.4538 53.3733 73.9237 58.9812 71.2063C63.6847 68.9272 67.5343 65.2466 70.0239 60.707C70.8206 59.2544 70.0594 57.4961 68.5221 56.8787C66.9847 56.2612 65.2572 57.0236 64.4063 58.4451C62.5112 61.6114 59.7245 64.1793 56.365 65.8072C52.1 67.8739 47.2178 68.277 42.6715 66.938C38.1251 65.5989 34.241 62.6137 31.7771 58.5651C29.3132 54.5164 28.4464 49.695 29.346 45.0417C30.2455 40.3884 32.8468 36.2373 36.6421 33.3987C40.4374 30.5601 45.1543 29.2376 49.8721 29.6894C54.59 30.1413 58.9701 32.335 62.1577 35.8423C64.6684 38.605 66.2972 42.0265 66.8757 45.671C67.1355 47.3072 68.4544 48.6585 70.1111 48.6585Z" fill="#D9D9D9"/>
</g>
</g>
<defs>
<filter id="filter0_d_259_1132" x="0.366564" y="0.969591" width="95.218" height="95.3777" filterUnits="userSpaceOnUse" color-interpolation-filters="sRGB">
<feFlood flood-opacity="0" result="BackgroundImageFix"/>
<feColorMatrix in="SourceAlpha" type="matrix" values="0 0 0 0 0 0 0 0 0 0 0 0 0 0 0 0 0 0 127 0" result="hardAlpha"/>
<feOffset/>
<feGaussianBlur stdDeviation="11.3167"/>
<feComposite in2="hardAlpha" operator="out"/>
<feColorMatrix type="matrix" values="0 0 0 0 1 0 0 0 0 1 0 0 0 0 1 0 0 0 0.57 0"/>
<feBlend mode="normal" in2="BackgroundImageFix" result="effect1_dropShadow_259_1132"/>
<feBlend mode="normal" in="SourceGraphic" in2="effect1_dropShadow_259_1132" result="shape"/>
</filter>
<filter id="filter1_d_259_1132" x="0.366564" y="0.969591" width="95.218" height="95.3777" filterUnits="userSpaceOnUse" color-interpolation-filters="sRGB">
<feFlood flood-opacity="0" result="BackgroundImageFix"/>
<feColorMatrix in="SourceAlpha" type="matrix" values="0 0 0 0 0 0 0 0 0 0 0 0 0 0 0 0 0 0 127 0" result="hardAlpha"/>
<feOffset/>
<feGaussianBlur stdDeviation="11.3167"/>
<feComposite in2="hardAlpha" operator="out"/>
<feColorMatrix type="matrix" values="0 0 0 0 1 0 0 0 0 1 0 0 0 0 1 0 0 0 0.57 0"/>
<feBlend mode="normal" in2="BackgroundImageFix" result="effect1_dropShadow_259_1132"/>
<feBlend mode="normal" in="SourceGraphic" in2="effect1_dropShadow_259_1132" result="shape"/>
</filter>
<filter id="filter2_d_259_1132" x="19.6593" y="23.603" width="56.6326" height="56.7923" filterUnits="userSpaceOnUse" color-interpolation-filters="sRGB">
<feFlood flood-opacity="0" result="BackgroundImageFix"/>
<feColorMatrix in="SourceAlpha" type="matrix" values="0 0 0 0 0 0 0 0 0 0 0 0 0 0 0 0 0 0 127 0" result="hardAlpha"/>
<feOffset dy="3.34073"/>
<feGaussianBlur stdDeviation="1.67036"/>
<feComposite in2="hardAlpha" operator="out"/>
<feColorMatrix type="matrix" values="0 0 0 0 0 0 0 0 0 0 0 0 0 0 0 0 0 0 0.25 0"/>
<feBlend mode="normal" in2="BackgroundImageFix" result="effect1_dropShadow_259_1132"/>
<feBlend mode="normal" in="SourceGraphic" in2="effect1_dropShadow_259_1132" result="shape"/>
</filter>
<filter id="filter3_d_259_1132" x="0.366564" y="0.969591" width="95.218" height="95.3777" filterUnits="userSpaceOnUse" color-interpolation-filters="sRGB">
<feFlood flood-opacity="0" result="BackgroundImageFix"/>
<feColorMatrix in="SourceAlpha" type="matrix" values="0 0 0 0 0 0 0 0 0 0 0 0 0 0 0 0 0 0 127 0" result="hardAlpha"/>
<feOffset/>
<feGaussianBlur stdDeviation="11.3167"/>
<feComposite in2="hardAlpha" operator="out"/>
<feColorMatrix type="matrix" values="0 0 0 0 1 0 0 0 0 1 0 0 0 0 1 0 0 0 0.57 0"/>
<feBlend mode="normal" in2="BackgroundImageFix" result="effect1_dropShadow_259_1132"/>
<feBlend mode="normal" in="SourceGraphic" in2="effect1_dropShadow_259_1132" result="shape"/>
</filter>
</defs>
</svg>
