<svg width="75" height="76" viewBox="0 0 75 76" fill="none" xmlns="http://www.w3.org/2000/svg">
<g filter="url(#filter0_d_259_1139)">
<path d="M50.3233 38.1757C51.2897 38.1757 52.084 37.3895 51.9686 36.43C51.6079 33.4314 50.3243 30.6021 48.2738 28.3459C45.8289 25.6557 42.4694 23.9732 38.8509 23.6266C35.2323 23.2801 31.6145 24.2944 28.7035 26.4716C25.7926 28.6488 23.7974 31.8327 23.1075 35.4017C22.4175 38.9707 23.0823 42.6688 24.9721 45.774C26.8619 48.8793 29.841 51.1689 33.328 52.1959C36.815 53.223 40.5596 52.9138 43.8309 51.3286C46.5745 49.9992 48.8201 47.8522 50.2724 45.204C50.7371 44.3567 50.2931 43.331 49.3963 42.9708C48.4995 42.6107 47.4918 43.0554 46.9955 43.8846C45.89 45.7316 44.2644 47.2296 42.3047 48.1791C39.8168 49.3847 36.9688 49.6199 34.3168 48.8388C31.6648 48.0576 29.399 46.3163 27.9618 43.9546C26.5245 41.5929 26.0189 38.7803 26.5436 36.0659C27.0684 33.3515 28.5858 30.9301 30.7997 29.2742C33.0136 27.6183 35.7651 26.8469 38.5172 27.1105C41.2693 27.374 43.8244 28.6537 45.6838 30.6997C47.1483 32.3112 48.0985 34.3071 48.436 36.433C48.5875 37.3875 49.3569 38.1757 50.3233 38.1757Z" fill="#D9D9D9"/>
</g>
<g opacity="0.2">
<g filter="url(#filter1_d_259_1139)">
<path d="M50.3233 38.1757C51.2897 38.1757 52.084 37.3895 51.9686 36.43C51.6079 33.4314 50.3243 30.6021 48.2738 28.3459C45.8289 25.6557 42.4694 23.9732 38.8509 23.6266C35.2323 23.2801 31.6145 24.2944 28.7035 26.4716C25.7926 28.6488 23.7974 31.8327 23.1075 35.4017C22.4175 38.9707 23.0823 42.6688 24.9721 45.774C26.8619 48.8793 29.841 51.1689 33.328 52.1959C36.815 53.223 40.5596 52.9138 43.8309 51.3286C46.5745 49.9992 48.8201 47.8522 50.2724 45.204C50.7371 44.3567 50.2931 43.331 49.3963 42.9708C48.4995 42.6107 47.4918 43.0554 46.9955 43.8846C45.89 45.7316 44.2644 47.2296 42.3047 48.1791C39.8168 49.3847 36.9688 49.6199 34.3168 48.8388C31.6648 48.0576 29.399 46.3163 27.9618 43.9546C26.5245 41.5929 26.0189 38.7803 26.5436 36.0659C27.0684 33.3515 28.5858 30.9301 30.7997 29.2742C33.0136 27.6183 35.7651 26.8469 38.5172 27.1105C41.2693 27.374 43.8244 28.6537 45.6838 30.6997C47.1483 32.3112 48.0985 34.3071 48.436 36.433C48.5875 37.3875 49.3569 38.1757 50.3233 38.1757Z" fill="#D9D9D9"/>
</g>
</g>
<g opacity="0.7" filter="url(#filter2_d_259_1139)">
<g filter="url(#filter3_d_259_1139)">
<path d="M50.3233 38.1757C51.2897 38.1757 52.084 37.3895 51.9686 36.43C51.6079 33.4314 50.3243 30.6021 48.2738 28.3459C45.8289 25.6557 42.4694 23.9732 38.8509 23.6266C35.2323 23.2801 31.6145 24.2944 28.7035 26.4716C25.7926 28.6488 23.7974 31.8327 23.1075 35.4017C22.4175 38.9707 23.0823 42.6688 24.9721 45.774C26.8619 48.8793 29.841 51.1689 33.328 52.1959C36.815 53.223 40.5596 52.9138 43.8309 51.3286C46.5745 49.9992 48.8201 47.8522 50.2724 45.204C50.7371 44.3567 50.2931 43.331 49.3963 42.9708C48.4995 42.6107 47.4918 43.0554 46.9955 43.8846C45.89 45.7316 44.2644 47.2296 42.3047 48.1791C39.8168 49.3847 36.9688 49.6199 34.3168 48.8388C31.6648 48.0576 29.399 46.3163 27.9618 43.9546C26.5245 41.5929 26.0189 38.7803 26.5436 36.0659C27.0684 33.3515 28.5858 30.9301 30.7997 29.2742C33.0136 27.6183 35.7651 26.8469 38.5172 27.1105C41.2693 27.374 43.8244 28.6537 45.6838 30.6997C47.1483 32.3112 48.0985 34.3071 48.436 36.433C48.5875 37.3875 49.3569 38.1757 50.3233 38.1757Z" fill="#D9D9D9"/>
</g>
</g>
<defs>
<filter id="filter0_d_259_1139" x="0.208361" y="0.926622" width="74.4055" height="74.4983" filterUnits="userSpaceOnUse" color-interpolation-filters="sRGB">
<feFlood flood-opacity="0" result="BackgroundImageFix"/>
<feColorMatrix in="SourceAlpha" type="matrix" values="0 0 0 0 0 0 0 0 0 0 0 0 0 0 0 0 0 0 127 0" result="hardAlpha"/>
<feOffset/>
<feGaussianBlur stdDeviation="11.3167"/>
<feComposite in2="hardAlpha" operator="out"/>
<feColorMatrix type="matrix" values="0 0 0 0 1 0 0 0 0 1 0 0 0 0 1 0 0 0 0.57 0"/>
<feBlend mode="normal" in2="BackgroundImageFix" result="effect1_dropShadow_259_1139"/>
<feBlend mode="normal" in="SourceGraphic" in2="effect1_dropShadow_259_1139" result="shape"/>
</filter>
<filter id="filter1_d_259_1139" x="0.208361" y="0.926622" width="74.4055" height="74.4983" filterUnits="userSpaceOnUse" color-interpolation-filters="sRGB">
<feFlood flood-opacity="0" result="BackgroundImageFix"/>
<feColorMatrix in="SourceAlpha" type="matrix" values="0 0 0 0 0 0 0 0 0 0 0 0 0 0 0 0 0 0 127 0" result="hardAlpha"/>
<feOffset/>
<feGaussianBlur stdDeviation="11.3167"/>
<feComposite in2="hardAlpha" operator="out"/>
<feColorMatrix type="matrix" values="0 0 0 0 1 0 0 0 0 1 0 0 0 0 1 0 0 0 0.57 0"/>
<feBlend mode="normal" in2="BackgroundImageFix" result="effect1_dropShadow_259_1139"/>
<feBlend mode="normal" in="SourceGraphic" in2="effect1_dropShadow_259_1139" result="shape"/>
</filter>
<filter id="filter2_d_259_1139" x="19.5011" y="23.5601" width="35.8201" height="35.9129" filterUnits="userSpaceOnUse" color-interpolation-filters="sRGB">
<feFlood flood-opacity="0" result="BackgroundImageFix"/>
<feColorMatrix in="SourceAlpha" type="matrix" values="0 0 0 0 0 0 0 0 0 0 0 0 0 0 0 0 0 0 127 0" result="hardAlpha"/>
<feOffset dy="3.34073"/>
<feGaussianBlur stdDeviation="1.67036"/>
<feComposite in2="hardAlpha" operator="out"/>
<feColorMatrix type="matrix" values="0 0 0 0 0 0 0 0 0 0 0 0 0 0 0 0 0 0 0.25 0"/>
<feBlend mode="normal" in2="BackgroundImageFix" result="effect1_dropShadow_259_1139"/>
<feBlend mode="normal" in="SourceGraphic" in2="effect1_dropShadow_259_1139" result="shape"/>
</filter>
<filter id="filter3_d_259_1139" x="0.208361" y="0.926622" width="74.4055" height="74.4983" filterUnits="userSpaceOnUse" color-interpolation-filters="sRGB">
<feFlood flood-opacity="0" result="BackgroundImageFix"/>
<feColorMatrix in="SourceAlpha" type="matrix" values="0 0 0 0 0 0 0 0 0 0 0 0 0 0 0 0 0 0 127 0" result="hardAlpha"/>
<feOffset/>
<feGaussianBlur stdDeviation="11.3167"/>
<feComposite in2="hardAlpha" operator="out"/>
<feColorMatrix type="matrix" values="0 0 0 0 1 0 0 0 0 1 0 0 0 0 1 0 0 0 0.57 0"/>
<feBlend mode="normal" in2="BackgroundImageFix" result="effect1_dropShadow_259_1139"/>
<feBlend mode="normal" in="SourceGraphic" in2="effect1_dropShadow_259_1139" result="shape"/>
</filter>
</defs>
</svg>
